<svg width="2951" height="872" viewBox="0 0 2951 872" fill="none" xmlns="http://www.w3.org/2000/svg">
<path d="M366.012 131.915C367.355 141.818 366.368 160.683 365.615 171.017C365.603 171.209 365.59 171.4 365.577 171.593C365.404 174.115 365.289 176.303 365.139 179.064C364.78 185.498 364.299 194.363 362.302 212.379C362.157 214.779 362.003 217.216 361.84 219.691C361.639 222.729 361.371 225.768 361.045 228.778C356.018 272.454 341.191 312.052 326.649 350.77C320.996 365.599 314.902 380.205 308.508 394.641C308.235 395.313 307.957 395.996 307.674 396.687C302.246 410.037 295.122 426.413 289.964 436.386C283.422 449.073 278.66 457.53 274.697 464.434C270.918 471.61 267.057 478.752 263.103 485.825C244.61 518.882 222.465 550.196 195.424 577.164C185.111 587.431 174.128 597.007 162.306 605.695C151.45 613.679 139.829 620.868 127.747 626.847C127.738 626.852 127.729 626.857 127.72 626.862C127.647 626.906 127.648 626.921 127.761 626.864C127.833 626.813 128.242 626.66 129.112 625.765C129.728 625.014 131.401 623.388 131.28 619.56C131.003 615.042 127.296 612.883 127.121 612.82C126.291 612.348 125.794 612.206 125.468 612.105C125.242 612.037 125.118 612.009 125.025 611.987C124.844 611.945 124.871 611.946 124.918 611.94C124.968 611.935 125.093 611.935 125.225 611.931C125.451 611.923 125.845 611.911 126.185 611.891C127.682 611.807 129.346 611.639 131.048 611.448C134.416 611.063 137.801 610.586 141.058 610.11C150.218 608.757 158.463 607.398 165.3 606.474C181.061 604.326 199.008 602.565 212.795 601.297C213.398 601.242 214 601.188 214.6 601.136C216.981 600.93 219.197 600.768 221.235 600.63C232.619 599.431 243.836 598.671 255.087 598.062C255.84 598.141 256.612 598.224 257.38 598.312C267.016 599.407 278.757 599.079 297.245 598.964C305.293 598.918 314.619 598.921 325.593 599.149C332.67 599.299 336.275 599.929 339.246 600.442C340.117 600.593 340.92 600.735 341.755 600.853C342.931 601.021 344.131 601.067 345.378 601.037C347.207 600.996 349.134 600.807 351.228 600.608C355.773 600.167 361.522 599.677 368.657 600.69C391.962 604.021 402.218 604.074 410.086 603.992C412.446 603.991 414.55 604.003 416.654 604.15C423.673 604.64 433.194 606.733 440.502 608.927C446.243 610.606 457.914 612.777 466.832 614.778C470.125 615.493 474.674 616.9 479.852 618.739C485.264 620.66 491.426 623.073 498.021 625.809C514.673 632.818 522.905 638.378 529.055 641.859C530.541 642.72 531.931 643.508 533.14 644.13L535.985 646.446C536.177 646.646 536.368 646.846 536.559 647.046C540.958 651.65 546.165 657.565 551.215 663.699C557.271 671.033 563.107 678.676 567.545 684.501C578.079 700.262 587.723 716.491 596.422 733.425C597.586 735.702 598.653 737.999 599.6 740.273L599.843 740.779C602.403 747.834 603.382 753.91 603.961 758.519C604.711 764.798 604.623 769.215 602.315 770.708C600.066 772.151 595.611 770.487 590.661 764.78C586.979 760.534 583.846 754.748 580.812 749.312L581.013 749.733C579.817 747.796 578.608 745.76 577.416 743.667C568.167 727.498 557.795 711.76 546.793 696.65C537.938 684.526 528.614 672.793 518.704 661.818L521.597 664.173C513.812 659.597 507.951 655.515 501.388 651.878C488.111 644.367 473.811 638.697 458.841 634.273C457.239 633.8 455.784 633.382 454.216 632.948C441.27 630.155 428.298 628.381 419.023 627.161C411.342 626.15 405.815 625.113 401.074 624.257C397.717 623.662 394.895 623.183 391.898 622.924C390.304 622.787 388.026 622.618 385.461 622.452C375.798 621.796 360.171 621.153 344.948 620.441C343.094 620.351 341.203 620.252 339.373 620.147C331.838 619.712 323.082 619.026 314.711 618.435C302.748 617.582 291.577 616.935 285.946 617.227C276.064 617.731 264.737 617.645 254.739 617.731C245.204 617.804 236.895 618.048 232.237 618.831C226.722 619.764 221.929 619.919 215.039 620.387C214.997 620.39 214.956 620.393 214.914 620.396C209.892 620.758 203.736 621.21 195.407 622.096C185.782 623.121 178.921 623.564 173.096 623.932C164.922 624.442 158.73 624.836 149.597 626.462C144.726 627.323 139.743 628.115 134.796 628.684C132.305 628.964 129.907 629.195 127.311 629.287C125.978 629.317 124.775 629.376 122.765 629.153C122.442 629.113 122.106 629.062 121.736 628.989C121.55 628.952 121.356 628.91 121.149 628.858C121.038 628.831 120.961 628.811 120.806 628.767C120.634 628.719 120.452 628.663 120.257 628.597C119.867 628.464 119.426 628.292 118.903 628.024C118.642 627.89 118.36 627.73 118.056 627.53C117.892 627.422 117.787 627.352 117.548 627.172C117.275 626.966 116.988 626.724 116.692 626.436C115.52 625.351 114.156 623.121 114.045 620.677C113.932 618.433 114.558 616.933 115.145 615.842C116.561 613.571 116.956 613.599 117.486 613.078C117.736 612.876 117.965 612.708 118.181 612.56C118.395 612.412 118.611 612.276 118.717 612.211C119.238 611.894 119.701 611.655 120.161 611.434C120.448 611.302 120.737 611.168 121.029 611.033C124.372 609.491 128.084 607.511 131.863 605.314C136.918 602.381 141.982 599.125 146.734 596.152C150.676 593.683 153.992 591.881 157.002 590.164C157.947 589.622 158.798 589.136 159.654 588.618C162.591 586.297 165.426 583.944 168.208 581.529C168.61 581.071 169.03 580.582 169.471 580.068C171.604 577.556 174.221 574.403 177.652 570.707C183.055 564.87 188.055 560.078 193.212 554.816C197.239 550.693 201.292 546.346 205.533 540.908C208.402 537.229 211.48 532.872 214.438 528.47C218.835 521.942 222.907 515.368 226.008 510.969C227.189 509.295 228.394 508.028 229.588 506.761C229.593 506.755 229.599 506.75 229.605 506.745C229.686 506.658 229.767 506.571 229.848 506.485C235.687 496.844 241.126 486.951 246.215 476.85C247.059 475.173 247.926 473.438 248.761 471.748C249.218 470.69 249.686 469.608 250.136 468.558C252.364 463.376 254.476 458.308 255.567 454.867C256.751 451.144 260.73 442.281 264.755 432.858C267.395 426.692 270.062 420.289 272.081 414.996C273.264 411.898 274.853 409.175 276.476 406.368C277.994 403.742 279.541 401.043 280.803 397.907C281.435 396.335 282.027 394.598 282.651 392.744C283.202 391.11 283.779 389.385 284.435 387.599C285.045 385.939 286.736 382.385 288.859 377.808C290.171 374.978 291.648 371.756 293.142 368.354C296.382 359.624 299.503 350.857 302.469 342.075C302.633 341.589 302.797 341.103 302.961 340.618C303.375 338.576 303.609 336.767 303.614 335.265C303.618 334.189 303.502 333.237 303.386 332.256C303.229 330.917 303.065 329.536 303.169 327.761C303.254 326.366 303.632 324.823 304.129 323.878C304.361 323.438 304.617 323.126 304.85 322.841C305.117 322.515 305.354 322.224 305.492 321.816C305.59 321.523 305.599 321.184 305.611 320.77C305.631 320.105 305.654 319.255 306.054 318.061C307.531 313.655 309.297 308.67 310.974 303.795C312.841 298.374 314.597 293.07 315.81 288.804C317.172 284.025 319.519 277.357 321.681 270.659C323.193 265.987 324.618 261.29 325.653 257.231C326.668 253.253 327.336 249.043 327.89 244.983C328.558 240.103 329.057 235.442 329.919 231.551C330.093 230.769 330.633 229.827 331.297 228.649C331.767 227.818 332.303 226.842 332.812 225.726C333.1 223.06 333.344 220.387 333.537 217.733C333.723 215.163 333.905 212.637 334.084 210.153C334.04 209.963 333.996 209.768 333.95 209.573C333.949 209.57 333.948 209.567 333.947 209.563C332.922 205.094 331.515 199.01 333.058 190.654C333.446 188.597 334.024 187.201 334.541 186.015C335.049 184.84 335.502 183.795 335.663 182.259C335.844 180.55 335.678 178.377 335.486 176.091C335.215 172.919 334.905 169.273 335.472 165.752C335.511 165.512 335.553 165.254 335.596 164.987C336.001 162.412 336.59 158.587 337.612 154.795C338.168 143.436 338.573 132.26 338.663 120.959C338.826 102.261 338.017 83.7135 335.424 65.345C334.187 56.3911 333.55 47.6034 334.043 40.7942C334.537 33.9937 336.157 29.7921 338.751 29.1595C341.342 28.5497 344.728 31.5262 348.173 37.556C351.61 43.5855 354.786 52.2459 356.702 61.6872C359.847 77.051 361.856 92.753 362.961 108.309C363.052 109.125 363.14 109.954 363.222 110.782C363.827 116.801 364.688 122.434 365.481 128.053C365.664 129.391 365.842 130.608 366.012 131.915Z" fill="black"/>
<path d="M888.053 29.3019C889.945 29.5558 891.339 31.9612 892.127 33.2827C892.142 33.3066 892.156 33.3304 892.171 33.3543C892.358 33.6679 892.569 33.9333 892.819 34.2427C893.414 34.9793 894.214 35.9775 895.419 38.5016C895.968 39.0569 896.509 39.619 897.039 40.1896C902.766 46.3562 907.971 53.0604 913.326 59.7853C913.409 59.8536 913.494 59.9229 913.579 59.993C915.229 61.3487 917.291 63.0048 918.218 64.4603C919.395 66.312 920.113 67.6746 920.692 68.8125C925.128 74.0509 929.805 79.1092 934.955 83.628C936.567 85.0425 938.227 86.4039 939.935 87.6987C941.508 88.8915 943.115 90.0397 944.751 91.1475C945.838 91.6008 946.922 91.9812 947.918 92.323C948.14 92.3995 948.359 92.4743 948.573 92.5481L948.495 92.4927C949.559 92.8214 950.533 93.1357 951.279 93.507C953.416 94.5736 955.503 96.4347 957.092 97.8014C957.35 98.0236 957.596 98.2347 957.828 98.4278C959.325 99.1175 960.864 99.7953 962.389 100.441C962.433 100.588 962.476 100.739 962.52 100.894C963.05 102.82 964.604 103.67 967.052 104.958C968.115 105.516 969.36 106.164 970.775 107.016C971.686 107.565 971.921 108.316 972.107 108.926C972.162 109.106 972.215 109.275 972.28 109.423C972.502 109.928 973.086 109.803 973.758 109.644C974.633 109.44 975.693 109.197 976.39 110.244C978.639 113.59 980.653 113.045 982.137 112.621C982.575 112.497 982.971 112.385 983.324 112.385C984.46 112.384 985.584 113.448 986.304 114.515C986.882 115.366 988.701 115.628 990.193 115.573C990.754 115.551 991.377 115.826 992.116 116.15C992.872 116.482 993.76 116.871 994.812 117.026C997.48 117.42 998.884 117.643 1000.01 117.823C1000.33 117.875 1000.63 117.924 1000.93 117.97C1001.82 118.109 1002.87 118.35 1003.96 118.603L1003.4 118.384C1003.46 118.395 1003.52 118.405 1003.59 118.415C1004.87 118.625 1006.14 118.793 1007.11 118.758C1009.29 119.788 1011.27 120.697 1013.03 121.322C1013.93 121.648 1014.78 122.905 1015.67 124.926C1016.56 126.948 1017.2 129.565 1017.18 132.283C1017.17 134.999 1016.64 137.627 1015.47 139.624C1014.32 141.62 1012.43 142.777 1010.49 142.763C1006.61 142.734 1003.01 142.228 999.693 141.554C998.235 141.254 996.818 140.911 995.438 140.532L994.904 140.325C992.64 139.592 990.421 138.776 988.246 137.831C985.87 136.799 983.53 135.689 981.223 134.513C980.985 134.391 980.746 134.268 980.509 134.145C978.259 133.855 976.016 133.48 974.537 133.02C973.312 132.639 972.63 131.917 972.049 131.299C971.647 130.872 971.293 130.494 970.843 130.309C970.601 130.209 970.263 130.091 969.85 129.944C968.182 129.356 965.329 128.324 963.187 126.49C962.241 125.68 961.252 124.524 960.307 123.409C958.97 121.825 957.734 120.33 956.836 120.094C955.247 119.675 953.81 118.496 952.547 117.44C951.349 116.438 950.307 115.547 949.405 115.542C948.34 115.544 947.761 114.944 946.937 114.064C946.348 113.443 945.645 112.691 944.552 111.875C943.282 110.927 942.549 109.999 941.936 109.211C941.059 108.09 940.44 107.264 938.823 106.9C938.683 106.87 938.544 106.837 938.407 106.804L938.345 106.76C936.787 106.382 935.329 105.765 934.468 104.879C934.04 104.44 933.468 104.048 932.873 103.638C932.089 103.098 931.265 102.525 930.682 101.772C930.202 101.152 930.027 100.358 929.872 99.6527C929.823 99.4328 929.777 99.2224 929.724 99.0285C929.244 98.6705 928.76 98.3124 928.278 97.961C928.15 97.9692 928.012 97.9816 927.868 97.9935C927.149 98.0532 926.263 98.1228 925.434 97.8549C924.127 97.4332 923.417 96.4992 922.674 95.51C922.098 94.7421 921.502 93.9407 920.579 93.3145C919.952 92.8892 919.149 92.516 918.351 92.1405C917.163 91.5811 916.001 91.0275 915.455 90.316C915.251 90.0498 915.246 89.615 915.244 89.1841C915.244 89.1818 915.245 89.1794 915.245 89.1771C915.245 89.1479 915.244 89.1191 915.244 89.0899C913.458 87.9289 911.659 86.7693 909.857 85.6034C909.661 85.5473 909.466 85.4898 909.273 85.432C908.328 85.1498 907.409 84.8694 906.61 84.9111C905.742 84.9546 904.34 84.1921 902.858 83.3662C901.89 82.8283 900.892 82.267 899.988 81.8998C899.459 81.6845 899.315 81.0917 899.167 80.4805C899.03 79.9102 898.89 79.3251 898.432 79.0169C898.203 78.8626 897.89 78.7661 897.556 78.6629C897.262 78.5727 896.951 78.4771 896.668 78.3314C896.404 78.1959 896.065 77.6269 895.632 76.8965C895.364 76.4449 895.06 75.9328 894.719 75.4227C893.421 74.4887 892.133 73.5373 890.861 72.5683C890.414 72.5524 889.937 72.63 889.425 72.8277C889.058 72.9696 888.659 73.1781 888.251 73.3903C887.696 73.6797 887.121 73.9778 886.578 74.1322C886.154 74.2528 885.862 74.1806 885.85 73.9455C885.844 73.8359 885.898 73.6927 885.947 73.5631C886.002 73.4147 886.051 73.2825 885.999 73.2359C885.961 73.2024 885.851 73.2385 885.718 73.2813C885.505 73.3498 885.229 73.4372 885.076 73.2993C884.508 72.7857 883.95 72.1153 883.407 71.4571C882.803 70.7251 882.212 70.0052 881.642 69.5349C881.002 69.0082 880.451 67.9014 879.904 66.7911C879.524 66.0184 879.146 65.2448 878.737 64.6612C878.337 64.0895 877.688 63.7136 877.062 63.35C876.309 62.9132 875.583 62.4886 875.36 61.7603C875.315 61.6129 875.499 61.2052 875.731 60.6963C875.895 60.3356 876.083 59.9227 876.23 59.5147C875.642 58.8816 875.068 58.2338 874.506 57.5737C874.444 57.589 874.381 57.6043 874.317 57.6203C874.315 57.6208 874.314 57.6214 874.313 57.6219C872.865 57.9851 870.873 58.4682 870.748 56.7262C870.716 56.2839 870.944 55.784 871.149 55.3344C871.351 54.8931 871.533 54.4992 871.427 54.2548C871.306 53.9774 870.877 53.906 870.409 53.826C869.752 53.714 869.016 53.585 868.955 52.859C868.951 52.8095 868.947 52.7557 868.942 52.7007C868.894 52.1785 868.825 51.4076 869.111 50.3361C868.086 48.7848 867.108 47.2025 866.161 45.5932C864.587 42.916 863.104 40.1704 861.667 37.4167C860.969 36.073 861.071 34.179 862.013 32.129C862.955 30.0758 864.645 28.0449 866.756 26.4166C868.867 24.7881 871.253 23.6655 873.445 23.2156C875.635 22.7682 877.44 23.0399 878.537 23.943C880.319 25.4175 882.117 26.8711 883.9 28.3278C884.018 28.3832 884.135 28.4401 884.249 28.4986C885.1 28.9335 886.2 29.0741 887.299 29.2075C887.551 29.2382 887.804 29.2684 888.053 29.3019Z" fill="black"/>
<path d="M824.616 266.703C832.041 265.249 846.407 265.616 854.245 265.879C854.388 265.883 854.532 265.887 854.675 265.891C856.518 265.951 858.363 265.963 860.375 265.978C865.321 266.016 871.928 266.063 885.811 266.943C889.819 266.933 893.921 266.942 897.891 266.971C916.494 267.109 934.963 267.525 953.55 268.104C979.183 268.912 1004.95 271.769 1030.22 278.169C1030.8 278.29 1031.37 278.415 1031.95 278.543C1043.11 280.911 1056.85 285.053 1065.05 288.842C1075.55 293.609 1082.23 297.678 1087.63 301.186C1100.24 308.613 1111.88 317.698 1122.15 327.867C1139.73 344.629 1146.27 369.499 1146.06 391.348C1146.1 402.892 1144.76 414.183 1142.82 425.182C1141.02 435.328 1138.67 445.266 1136.06 455.062C1134.77 460.827 1133.5 466.291 1132.29 471.325C1130.58 478.397 1128.96 484.652 1127.46 489.733C1125.64 495.861 1123.49 502.287 1121.43 508.408C1119.09 515.464 1115.76 521.89 1112.41 526.955C1111.32 528.617 1110.23 530.14 1109.2 531.519C1103.78 539.459 1097.13 546.318 1090.08 552.25C1089.54 552.555 1088.97 552.86 1088.42 553.153C1081.39 556.842 1073.7 562.202 1060.98 569.206C1055.46 572.24 1049.02 575.546 1041.3 579.11C1036.36 581.391 1033.58 582.039 1031.31 582.578C1030.65 582.732 1030.02 582.877 1029.4 583.048C1027.26 583.64 1025.36 584.912 1023.04 586.433C1022.95 586.491 1022.86 586.55 1022.77 586.61C1019.77 588.566 1016.19 590.817 1010.87 592.318C993.4 597.16 986.331 600.596 980.856 603.416C979.274 604.217 977.803 604.942 976.266 605.55C971.313 607.523 963.833 609.019 958.113 609.692C953.592 610.253 944.874 612.696 938.245 614.593C935.749 615.318 932.299 615.947 928.226 616.629C924.046 617.331 919.153 618.092 914.017 619.118C901.021 621.686 894.259 622.917 888.92 624.033C887.416 624.344 885.97 624.649 884.604 624.954C880.202 625.932 874.806 627.139 869.844 628.699C869.734 628.734 869.623 628.769 869.513 628.804C865.369 630.11 861.587 632.607 860.261 634.368C860.138 634.539 860.058 634.687 860.029 634.785C859.844 634.895 859.996 635.012 860.354 633.495C860.498 632.734 860.676 631.331 860.118 629.43C859.599 627.531 858.113 625.617 856.93 624.78L848.75 622.108C858.466 622.119 867.567 620.447 876.924 616.823C879.661 615.789 882.485 614.777 885.764 613.905L885.096 614.21C888.01 613.394 892.108 612.083 895.453 611.828C901.537 611.293 905.192 613.001 906.052 615.545C906.92 618.142 904.967 621.447 901.567 625.195C899.599 627.306 897.595 629.489 893.956 632.018L893.404 632.27C891.196 633.695 888.361 635.343 885.25 636.743C874.358 641.787 861.753 644.999 849.455 645.578L845.189 645.555L842.505 643.307C840.024 641.521 837.646 637.923 837.103 634.557C836.491 631.19 837.057 628.544 837.699 626.524C839.081 622.501 840.974 620.137 842.896 618.003C843.09 617.793 843.283 617.591 843.482 617.389C849.547 611.373 856.233 608.215 863.224 606.101C875.873 602.458 887.905 600.905 899.679 599.225C912.027 597.53 924.071 595.868 936.005 593.691C937.227 593.469 938.44 593.245 939.672 593.011C949.525 590.365 959.139 587.337 965.908 585.205C971.479 583.457 975.656 582.527 979.24 581.693C981.671 581.127 983.906 580.573 985.991 579.82C987.121 579.413 988.692 578.82 990.55 578.095C996.439 575.81 1005.39 572.075 1014.56 568.193C1017.32 567.028 1020.06 565.897 1022.77 564.822C1028.09 562.71 1034.31 560.419 1040.16 558.113C1048.56 554.824 1056.13 551.424 1059.58 549.099C1065.66 545.052 1072.65 540.785 1078.34 536.485C1083.77 532.431 1087.97 528.342 1089.73 525.565C1091.83 522.249 1093.97 519.818 1096.74 515.819C1098.63 513.038 1100.81 509.479 1102.77 504.141C1102.94 503.647 1103.12 503.16 1103.28 502.681C1105.4 496.495 1107.21 492.068 1108.75 488.265C1111.1 482.464 1112.88 478.079 1114.36 471.248C1116.01 463.653 1117.85 455.832 1119.72 449.812C1120.57 447.068 1121.38 443.894 1122.16 440.585C1123.21 436.206 1124.21 431.61 1125.29 427.444C1126.18 424.029 1127.2 421.24 1128.07 418.765C1128.34 417.99 1128.6 417.246 1128.83 416.523C1129.23 413.755 1129.58 410.944 1129.85 408.176C1129.81 407.714 1129.77 407.23 1129.72 406.727C1129.47 404.209 1129.11 401.125 1128.94 397.423C1128.65 391.541 1128.77 386.468 1128.49 381.158C1128.26 377.039 1127.77 372.735 1126.37 368.114C1125.41 364.949 1123.95 361.522 1122.2 358.34C1119.63 353.59 1116.4 349.476 1114.23 346.577C1113.41 345.483 1112.86 344.375 1112.3 343.304C1112.3 343.299 1112.3 343.294 1112.3 343.289C1112.26 343.216 1112.22 343.143 1112.18 343.07C1111.44 342.337 1110.67 341.617 1109.88 340.911C1103.41 335.134 1096.57 329.936 1089.32 325.382C1088.58 324.988 1087.8 324.573 1087.07 324.198C1083.39 322.294 1079.78 320.652 1077.24 319.883C1074.52 319.05 1068.15 316.076 1061.17 313.532C1056.63 311.86 1051.76 310.308 1047.81 309.323C1045.42 308.719 1043.44 307.726 1041.23 306.689C1039.26 305.751 1037.11 304.781 1034.72 304.225C1033.51 303.944 1032.17 303.741 1030.72 303.533C1029.47 303.356 1028.16 303.184 1026.77 302.948C1025.45 302.722 1022.74 301.907 1019.07 300.928C1016.87 300.336 1014.29 299.68 1011.6 299.079C1004.32 298.039 997.108 297.279 989.764 296.713C988.217 296.855 986.847 297.114 985.742 297.514C984.939 297.799 984.285 298.171 983.598 298.55C982.666 299.067 981.701 299.603 980.393 299.993C979.371 300.297 978.181 300.362 977.395 300.148C977.03 300.048 976.771 299.89 976.526 299.747C976.247 299.583 975.998 299.437 975.682 299.42C975.454 299.408 975.211 299.495 974.91 299.6C974.431 299.768 973.808 299.985 972.877 299.939C969.349 299.765 965.533 299.506 961.583 299.298C958.684 299.143 955.783 299.019 953.119 298.974C951.857 298.953 950.664 298.944 949.564 298.954C945.692 298.986 940.119 298.531 934.609 298.084C930.694 297.77 926.9 297.462 923.529 297.317C920.275 297.175 916.883 297.349 913.589 297.522C909.701 297.731 905.814 297.934 902.652 297.574C902.011 297.501 901.182 297.082 900.168 296.558C899.448 296.186 898.62 295.761 897.683 295.368C893.64 295.339 889.474 295.296 885.389 295.245C885.243 295.3 885.093 295.356 884.942 295.414C884.94 295.415 884.937 295.416 884.935 295.418C881.556 296.715 876.948 298.492 870.492 297.413C868.839 297.138 867.812 296.635 866.889 296.182C865.988 295.737 865.168 295.339 863.955 295.257C862.583 295.163 860.978 295.439 859.256 295.74C856.767 296.164 854.063 296.64 851.299 296.222C851.109 296.194 850.905 296.162 850.693 296.131C848.676 295.834 845.77 295.399 842.796 294.509C834.074 294.35 825.444 294.202 816.731 294.148C803.53 294.138 788.52 293.938 778.269 295.746C777.392 295.964 776.534 296.177 775.664 296.392C768.741 298.102 761.788 298.814 756.263 298.185C750.822 297.595 746.814 295.474 747 292.697C746.962 290.077 748.359 287.361 752.609 284.157C756.765 281.004 762.903 277.926 769.625 275.664C770.469 275.38 771.303 275.099 772.156 274.812C785.799 271.125 795.618 270.868 806.781 269.802C807.398 269.72 808.068 269.639 808.652 269.566C813.223 269.013 817.478 268.138 821.697 267.284C822.697 267.087 823.648 266.892 824.616 266.703Z" fill="black"/>
<path d="M1536.66 202.974C1544.87 202.826 1560.15 205.938 1568.47 207.84C1568.63 207.873 1568.78 207.907 1568.93 207.941C1570.9 208.384 1572.78 208.765 1574.98 209.218C1580.2 210.307 1587.3 211.748 1601.77 215.839C1602.14 215.92 1602.51 216.001 1602.88 216.083C1606.83 216.955 1610.76 217.878 1614.67 218.851C1660.99 230.454 1705.3 247.927 1747.57 269.425C1748.13 269.682 1748.68 269.942 1749.24 270.202C1751.57 271.296 1754.1 272.5 1756.57 273.708C1766.32 278.406 1775.86 284.998 1781.63 290.227C1791.05 298.732 1796.29 305.401 1800.45 310.847C1815.21 328.816 1826.13 348.506 1836.74 367.679C1845.03 382.512 1848.55 399.438 1848.59 415.678C1848.64 428.171 1846.85 440.389 1844.06 452.192C1841.48 463.065 1838.01 473.621 1834 483.868C1832.77 487.362 1831.54 490.729 1830.31 493.942C1829.33 496.491 1828.28 498.919 1827.17 501.242C1823.51 508.919 1819.32 515.244 1815.52 520.057C1806.32 531.761 1793.69 541.959 1784.52 549.096C1783.01 550.27 1781.59 551.365 1780.29 552.372C1775.89 556.104 1771.52 559.765 1767.2 563.441C1764.51 565.729 1761.89 567.936 1759.28 570.109C1758.72 570.419 1758.15 570.726 1757.58 571.035C1750.57 574.775 1742.91 580.854 1730.61 589.789C1725.15 593.735 1718.9 598.131 1711.2 603.036C1706.15 606.236 1703.31 607.311 1700.96 608.213C1700.27 608.475 1699.65 608.704 1699 608.977C1696.72 609.944 1694.9 611.46 1692.47 613.356C1689.45 615.737 1685.7 618.62 1679.94 620.807C1661.48 627.689 1653.53 631.141 1647.38 634.017C1645.55 634.833 1643.89 635.533 1642.15 636.098C1636.48 637.987 1628.03 638.832 1622.01 638.939C1621.25 638.957 1620.39 639.017 1619.46 639.108C1614.36 639.628 1606.64 641.099 1600.49 642.26C1597.73 642.789 1593.96 643.139 1589.55 643.464C1584.98 643.803 1579.7 644.113 1574.07 644.633C1559.8 645.916 1552.31 646.281 1546.24 646.63C1544.48 646.724 1542.95 646.806 1541.31 646.888C1536.28 647.149 1529.88 647.338 1523.58 647.487C1515.97 647.668 1508.27 647.795 1502.34 648.009C1497.21 647.803 1492.05 647.571 1486.79 647.316L1484.38 647.026C1479.31 645.413 1473.4 645.164 1466.06 636.677C1462.42 632.164 1461.71 625.125 1462.59 621.261C1463.36 617.173 1464.64 614.552 1465.7 612.258C1466.43 610.727 1467.22 609.23 1468.02 607.787C1472.46 599.938 1478.13 594.346 1483.08 590.993C1488.06 587.667 1492.04 586.869 1494.19 588.522C1496.34 590.196 1496.48 594.235 1494.88 599.752C1493.31 605.268 1490.08 611.801 1487.11 617.871C1486.57 618.991 1486.06 620.114 1485.6 621.233C1484.9 622.887 1484.47 624.368 1484.48 624.812C1484.47 625.031 1484.56 624.898 1484.51 624.44C1484.47 623.992 1484.18 623.322 1483.97 623.015C1483.47 622.371 1483.93 622.885 1485.04 623.255C1486.13 623.658 1487.69 624.062 1489.37 624.375L1487.33 624.129C1493.09 624.121 1498.69 624.099 1504.37 624.071C1523.37 623.969 1542.32 623.81 1561.12 623.357C1574.25 623.029 1587.29 622.466 1600.15 621.232C1601.46 621.107 1602.81 620.972 1604.13 620.833C1608.34 620.085 1612.54 619.269 1616.64 618.482C1623.17 617.264 1628.57 616.203 1632.84 615.193C1638.63 613.841 1642.79 613.012 1646.44 612.186C1648.97 611.606 1651.19 611.022 1653.31 610.2C1654.49 609.743 1656.03 609.107 1657.94 608.27C1665.66 604.972 1678.48 598.16 1690.36 591.603C1695.71 588.692 1701.8 585.44 1707.73 582.066C1716.15 577.289 1723.86 572.523 1727.41 569.601C1733.7 564.434 1741.04 559.166 1747.7 554.213C1750.31 552.283 1752.83 550.389 1755.09 548.612C1758.14 546.218 1760.66 544.15 1762.24 542.531C1765.53 539.162 1768.77 536.839 1773.47 533.358C1776.72 530.937 1780.7 527.969 1785.68 523.581C1791.4 518.511 1795.34 514.938 1798.58 511.786C1803.08 507.338 1806.34 503.761 1809.51 497.534C1811.28 494.005 1812.88 490.355 1814.25 486.832C1815.68 483.207 1817.05 479.778 1818.35 476.777C1819.57 473.979 1820.76 470.743 1821.92 467.332C1823.46 462.823 1824.9 458.052 1826.33 453.733C1827.51 450.169 1828.72 447.295 1829.75 444.704C1830.07 443.898 1830.37 443.124 1830.64 442.366C1831.21 439.43 1831.69 436.491 1832.07 433.543C1832.05 433.055 1832.02 432.543 1831.99 432.009C1831.82 429.327 1831.55 426.068 1831.42 422.121C1831.21 415.882 1831.28 410.502 1830.86 404.834C1830.53 400.435 1829.88 395.856 1828.23 390.901C1827.11 387.529 1825.43 383.833 1823.47 380.392C1822.74 379.111 1821.98 377.875 1821.2 376.665C1818.62 372.617 1816.25 368.835 1814.67 365.882C1813.88 364.408 1813.43 363.009 1812.98 361.623C1812.97 361.616 1812.97 361.61 1812.97 361.603C1812.94 361.509 1812.91 361.415 1812.88 361.322C1807.07 352.176 1801.03 343.287 1794.48 334.988C1793.86 334.304 1793.24 333.62 1792.62 332.943C1789.59 329.638 1786.54 326.583 1784.29 324.855C1781.86 322.972 1776.58 317.6 1770.53 312.729C1766.58 309.521 1762.31 306.524 1758.66 304.408C1756.52 303.168 1754.75 301.621 1752.87 300.081C1751.11 298.641 1749.25 297.207 1746.96 296.12C1746.55 295.923 1746.11 295.733 1745.66 295.548C1744.82 295.203 1743.92 294.857 1742.95 294.487C1741.66 294.002 1740.24 293.465 1738.84 292.882C1737.53 292.337 1734.7 290.768 1731.1 288.831C1728.85 287.621 1726.32 286.275 1723.6 284.903C1716.23 281.811 1708.76 278.824 1701.3 275.965C1699.66 275.613 1698.14 275.417 1696.91 275.454C1696.02 275.48 1695.21 275.617 1694.38 275.756C1693.25 275.946 1692.07 276.136 1690.61 276.088C1689.47 276.047 1688.22 275.721 1687.47 275.258C1687.12 275.042 1686.89 274.802 1686.67 274.584C1686.43 274.334 1686.21 274.111 1685.89 273.989C1685.65 273.902 1685.37 273.903 1685.03 273.904C1684.48 273.904 1683.76 273.903 1682.8 273.547C1679.28 272.235 1675.27 270.653 1671.34 269.144C1666.97 267.462 1662.68 265.871 1659.22 264.769C1655.33 263.528 1649.94 261.332 1644.5 259.218C1640.69 257.736 1636.88 256.298 1633.57 255.206C1630.31 254.128 1626.84 253.348 1623.47 252.622C1619.42 251.749 1615.52 250.957 1612.34 249.791C1611.7 249.555 1610.98 248.944 1610.07 248.182C1609.43 247.642 1608.68 247.022 1607.82 246.409C1604.09 245.482 1600.35 244.577 1596.6 243.699C1596.15 243.593 1595.69 243.486 1595.24 243.38C1595.08 243.401 1594.91 243.422 1594.74 243.444C1594.74 243.445 1594.74 243.445 1594.73 243.446C1590.96 243.943 1585.81 244.637 1579.34 242.185C1577.69 241.561 1576.72 240.848 1575.84 240.206C1574.98 239.575 1574.21 239.012 1572.98 238.678C1571.58 238.3 1569.86 238.237 1567.98 238.171C1565.34 238.079 1562.4 237.993 1559.61 237.036C1559.42 236.97 1559.22 236.9 1559 236.827C1556.98 236.14 1553.99 235.136 1551.07 233.699C1542 231.881 1532.93 230.191 1523.84 228.711C1508.73 226.267 1493.53 224.304 1478.58 223.855C1471.31 223.637 1464.51 222.931 1459.2 221.758C1453.94 220.56 1450.47 218.938 1449.75 216.355C1448.99 213.819 1451.43 210.35 1456.93 207.44C1462.44 204.519 1470.27 202.639 1478.32 202.267C1491.45 201.657 1504.32 202.122 1517.08 203.052C1517.75 203.069 1518.43 203.09 1519.1 203.116C1524.08 203.3 1528.77 203.145 1533.43 203.034C1534.5 203.009 1535.6 202.989 1536.66 202.974Z" fill="black"/>
<path d="M1776.21 151.896C1775.57 156.24 1771.4 163.293 1769.04 167.052C1768.99 167.122 1768.95 167.192 1768.91 167.262C1768.35 168.16 1767.85 169.044 1767.27 170.053C1765.88 172.464 1764.02 175.769 1759.31 182.098C1758.17 184.061 1756.98 186.049 1755.79 187.966C1742.79 208.913 1727.18 227.892 1710.57 245.541C1710.38 245.777 1710.18 246.018 1709.99 246.261C1706.15 250.993 1701.3 256.759 1697.81 259.938C1693.33 264.027 1690.18 266.617 1687.56 268.737C1677.27 278.654 1666.77 288.309 1656.25 297.898C1652.5 301.332 1648.6 304.553 1644.61 307.611C1639.69 311.392 1634.64 314.923 1629.53 318.298C1624.82 321.409 1620.06 324.363 1615.25 327.219C1612.55 329.091 1610.03 330.866 1607.64 332.507C1604.31 334.792 1601.3 336.78 1598.71 338.23C1592.5 341.726 1585.02 344.746 1579.47 346.896C1578.56 347.248 1577.7 347.578 1576.91 347.886C1572.68 349.99 1568.44 352.057 1564.19 354.097C1563.86 354.123 1563.52 354.146 1563.18 354.168C1558.94 354.446 1554.41 356.39 1547.27 359.352C1544.17 360.641 1540.56 362.124 1536.26 363.737C1533.49 364.78 1531.88 364.816 1530.56 364.85C1530.17 364.86 1529.81 364.87 1529.45 364.903C1528.22 365.018 1527.2 365.829 1525.99 366.786C1524.43 368.028 1522.55 369.519 1519.5 370.047C1509.78 371.727 1506.33 374.533 1503.72 376.662C1502.95 377.287 1502.25 377.852 1501.5 378.312C1499.04 379.803 1495.11 380.831 1492.04 381.333C1490.75 381.544 1488.94 382.274 1487.07 383.208C1485.29 384.081 1483.48 385.081 1481.9 386.002C1480.63 386.743 1478.8 387.417 1476.6 388.178C1474.33 388.966 1471.71 389.829 1468.9 390.958C1461.82 393.788 1457.8 394.948 1454.55 395.86C1453.6 396.118 1452.75 396.34 1451.85 396.563C1449.08 397.258 1445.52 397.921 1441.75 398.322C1437.25 398.821 1432.38 398.863 1428.5 398.598C1427.9 398.49 1427.3 398.371 1426.73 398.247L1400.88 394.909L1420.53 375.917C1431.2 368.146 1438.92 367.75 1447.79 366.652C1448.67 366.585 1449.55 366.566 1450.42 366.6L1449.5 366.713C1451.76 366.825 1454.5 367.196 1457.04 368.118C1460.15 369.239 1462.54 371.188 1463.39 373.774C1464.23 376.352 1463.64 379.336 1461.45 382.141C1459.65 384.418 1456.78 386.469 1452.93 387.588L1452.16 387.683C1451.6 387.835 1451.02 387.968 1450.44 388.08C1444.8 389.063 1437.68 391.964 1436.22 393.827L1430.93 374.811C1431.47 374.874 1432.02 374.925 1432.57 374.963C1439.88 375.465 1448.57 373.874 1457.16 371.701C1463.22 370.162 1469.32 368.225 1475.41 366.058C1476.04 365.836 1476.7 365.599 1477.3 365.378C1478.03 364.99 1478.76 364.595 1479.5 364.196C1483.79 361.9 1487.94 359.762 1491.06 358.337C1494.09 356.952 1496.47 356.398 1498.52 355.924C1499.92 355.598 1501.16 355.31 1502.34 354.816C1502.97 354.55 1503.83 354.169 1504.86 353.71C1509.08 351.836 1516.23 348.656 1523.07 346.63C1526.11 345.731 1529.73 344.896 1533.16 344.093C1538.09 342.939 1542.67 341.836 1544.75 340.73C1548.42 338.785 1552.9 337.255 1556.83 335.878C1560.6 334.558 1563.87 333.382 1565.49 332.163C1567.42 330.712 1569.35 330.084 1572.19 329.141C1574.16 328.486 1576.59 327.665 1579.75 326.285C1583.4 324.687 1586.09 323.782 1588.37 323.003C1591.58 321.9 1593.98 321.057 1597.03 318.731C1600.39 316.167 1603.97 313.669 1607.04 312.149C1608.42 311.465 1609.96 310.536 1611.52 309.565C1613.58 308.289 1615.77 306.887 1617.85 305.847C1619.6 304.972 1621.21 304.536 1622.63 304.141C1623.08 304.015 1623.51 303.89 1623.92 303.759C1625.2 302.88 1626.43 302.006 1627.68 301.093C1627.83 300.878 1627.99 300.649 1628.16 300.41C1628.99 299.209 1629.95 297.759 1631.42 296.261C1633.7 293.916 1636.08 292.361 1638.54 290.645C1640.45 289.312 1642.43 287.867 1644.34 285.896C1644.37 285.856 1644.41 285.815 1644.45 285.775C1645.81 284.359 1647.23 282.672 1648.63 281.007C1650.74 278.481 1652.88 275.896 1654.61 274.438C1655.27 273.888 1656.01 273.604 1656.75 273.325C1656.76 273.324 1656.76 273.323 1656.77 273.322C1656.82 273.303 1656.87 273.283 1656.92 273.264C1660.67 269.116 1664.32 264.949 1667.91 260.75C1668.18 260.347 1668.45 259.937 1668.72 259.527C1670.06 257.532 1671.33 255.604 1671.92 254.145C1672.55 252.582 1675.09 249.334 1677.64 245.968C1679.35 243.724 1681.06 241.428 1682.36 239.458C1683.13 238.295 1684.24 237.542 1685.39 236.768C1686.46 236.044 1687.54 235.312 1688.39 234.193C1688.82 233.63 1689.21 232.961 1689.63 232.247C1689.99 231.619 1690.37 230.955 1690.81 230.302C1691.23 229.69 1692.4 228.594 1693.94 227.126C1694.88 226.226 1695.95 225.205 1697.03 224.11C1699.46 220.829 1701.82 217.567 1704.2 214.239C1704.49 213.389 1704.64 212.573 1704.6 211.812C1704.57 211.265 1704.45 210.725 1704.33 210.172C1704.16 209.423 1703.99 208.638 1704.03 207.78C1704.06 207.11 1704.34 206.504 1704.73 206.256C1704.91 206.14 1705.11 206.102 1705.3 206.067C1705.51 206.027 1705.7 205.99 1705.81 205.848C1705.88 205.746 1705.88 205.579 1705.88 205.374C1705.88 205.048 1705.88 204.626 1706.18 204.214C1707.29 202.695 1708.67 200.982 1709.99 199.332C1711.45 197.504 1712.89 195.67 1713.89 194.139C1715.01 192.432 1717.02 190.246 1718.99 188.056C1720.36 186.542 1721.75 184.963 1722.81 183.571C1723.85 182.206 1724.66 180.587 1725.44 179.019C1726.37 177.138 1727.23 175.34 1728.43 174.071C1728.67 173.816 1729.24 173.674 1729.97 173.493C1730.48 173.365 1731.06 173.215 1731.65 172.996C1732.79 171.168 1733.95 169.291 1735.08 167.455C1735.07 167.36 1735.07 167.264 1735.06 167.166C1735.06 167.164 1735.06 167.163 1735.06 167.161C1734.83 164.968 1734.53 161.957 1737.13 159.553C1737.79 158.931 1738.5 158.702 1739.13 158.494C1739.76 158.289 1740.32 158.105 1740.7 157.592C1741.13 157.009 1741.3 156.134 1741.48 155.183C1741.74 153.84 1742.02 152.343 1743.08 151.266C1743.16 151.192 1743.24 151.113 1743.32 151.03C1744.08 150.248 1745.21 149.078 1746.74 148.109C1749.07 144.117 1751.36 140.081 1753.6 136.008C1757.32 129.224 1760.88 122.327 1764.2 115.291C1765.81 111.875 1768.21 108.894 1770.99 106.999C1773.77 105.108 1776.69 104.46 1779.22 105.302C1781.75 106.143 1783.71 108.433 1784.68 111.751C1785.66 115.064 1785.53 119.123 1784.37 122.98C1782.48 129.274 1780.41 135.53 1778.12 141.713C1778.03 142.05 1777.94 142.389 1777.84 142.724C1777.13 145.228 1776.82 147.687 1776.46 150.18C1776.38 150.751 1776.3 151.328 1776.21 151.896Z" fill="black"/>
<path d="M1976.32 225.42C1978.07 225.893 1978.92 228.337 1979.41 229.685C1979.42 229.71 1979.43 229.734 1979.43 229.759C1979.55 230.079 1979.7 230.361 1979.88 230.692C1980.3 231.463 1980.87 232.517 1981.52 235.098C1981.94 235.698 1982.35 236.322 1982.74 236.946C1987 243.681 1990.58 251.028 1994.03 258.501C1994.09 258.583 1994.16 258.666 1994.22 258.75C1995.46 260.375 1997.01 262.385 1997.51 263.972C1998.15 265.98 1998.46 267.433 1998.7 268.636C1999.68 270.735 2000.67 272.824 2001.69 274.9L2000.92 273.897C2003.27 277.45 2005.7 280.927 2008.29 284.249C2009.54 285.855 2010.84 287.429 2012.18 288.953C2013.42 290.359 2014.69 291.737 2015.98 293.083C2016.92 293.716 2017.85 294.269 2018.71 294.782C2019.93 295.507 2021.01 296.143 2021.76 296.8C2023.57 298.375 2025.02 300.7 2026.1 302.42C2026.28 302.702 2026.45 302.967 2026.6 303.21C2027.8 304.27 2029 305.317 2030.22 306.359C2030.21 306.509 2030.2 306.662 2030.19 306.819C2030.06 308.771 2031.2 309.992 2033 311.884C2033.79 312.713 2034.7 313.665 2035.69 314.863C2036.32 315.631 2036.27 316.395 2036.23 317.013C2036.22 317.196 2036.21 317.366 2036.21 317.521C2036.24 318.051 2036.8 318.099 2037.47 318.153C2038.34 318.224 2039.37 318.295 2039.64 319.471C2040.48 323.208 2042.47 323.285 2043.96 323.322C2044.4 323.336 2044.79 323.348 2045.11 323.449C2046.12 323.773 2046.75 325.073 2047.01 326.26C2047.23 327.21 2048.76 327.965 2050.11 328.328C2050.61 328.463 2051.08 328.893 2051.62 329.391C2052.17 329.904 2052.83 330.507 2053.7 330.93C2053.77 330.962 2053.84 330.993 2053.9 331.024L2053.41 330.6C2055.41 331.349 2056.2 331.448 2056.75 331.47C2056.9 331.474 2057.03 331.464 2057.15 331.442C2057.52 331.379 2057.72 331.224 2057.65 330.998C2057.56 330.725 2057.29 330.473 2057.29 330.16C2057.28 330.549 2059.01 330.577 2060.97 330.116C2061.98 329.897 2063.5 330.494 2065.2 331.868C2066.9 333.246 2068.64 335.278 2069.95 337.659C2071.26 340.04 2072.04 342.608 2072.06 344.872C2072.07 347.135 2071.27 348.916 2069.85 349.797C2066.96 351.514 2063.63 353.443 2058.4 354.104C2051.67 355.084 2044.66 351.437 2041.63 349C2040.96 348.499 2040.36 348.021 2039.78 347.543L2039.2 347.045C2037.91 345.823 2036.64 344.557 2035.42 343.275C2035.25 343.092 2035.07 342.909 2034.9 342.724C2032.96 341.788 2031.07 340.785 2029.89 339.923C2028.92 339.214 2028.56 338.343 2028.26 337.607C2028.05 337.098 2027.86 336.646 2027.52 336.342C2027.34 336.18 2027.08 335.972 2026.76 335.72C2025.46 334.687 2023.28 332.932 2022.01 330.648C2021.45 329.635 2020.97 328.301 2020.52 327.023C2019.88 325.202 2019.29 323.502 2018.56 323.047C2017.28 322.243 2016.4 320.788 2015.62 319.508C2014.88 318.28 2014.24 317.214 2013.43 317C2012.47 316.743 2012.16 316.074 2011.69 315.069C2011.37 314.371 2010.98 313.526 2010.24 312.541C2009.4 311.412 2009.02 310.412 2008.7 309.57C2008.24 308.384 2007.9 307.486 2006.55 306.91C2005.04 306.264 2003.69 305.407 2003.04 304.347C2002.75 303.866 2002.31 303.408 2001.86 302.93C2001.25 302.295 2000.62 301.635 2000.25 300.839C1999.95 300.182 1999.97 299.409 1999.99 298.721C1999.99 298.507 2000 298.302 1999.99 298.111C1999.63 297.703 1999.25 297.295 1998.88 296.895C1998.76 296.884 1998.63 296.876 1998.49 296.867C1997.8 296.822 1996.95 296.764 1996.24 296.399C1995.11 295.828 1994.64 294.85 1994.16 293.826C1993.78 293.029 1993.39 292.193 1992.65 291.495C1992.15 291.018 1991.47 290.568 1990.8 290.123C1989.8 289.466 1988.81 288.809 1988.43 288.083C1988.29 287.811 1988.37 287.401 1988.45 286.994C1988.45 286.992 1988.46 286.989 1988.46 286.987C1988.46 286.96 1988.47 286.932 1988.47 286.905C1988.08 286.56 1987.68 286.216 1987.29 285.872L1986.66 285.06C1985.71 283.994 1984.74 282.938 1983.77 281.881C1983.61 281.789 1983.44 281.696 1983.28 281.603C1982.49 281.149 1981.71 280.704 1980.96 280.583C1980.14 280.453 1979.06 279.471 1977.92 278.435C1977.17 277.759 1976.39 277.051 1975.66 276.551C1975.22 276.258 1975.25 275.689 1975.28 275.098C1975.31 274.548 1975.33 273.983 1974.99 273.619C1974.82 273.436 1974.55 273.292 1974.27 273.139C1974.02 273.005 1973.75 272.859 1973.52 272.675C1973.31 272.504 1973.15 271.919 1972.93 271.174C1972.8 270.715 1972.65 270.188 1972.46 269.658C1971.49 268.577 1970.51 267.48 1969.56 266.385C1969.15 266.3 1968.68 266.293 1968.15 266.394C1967.77 266.467 1967.34 266.596 1966.9 266.728C1966.31 266.908 1965.7 267.093 1965.15 267.151C1964.72 267.197 1964.46 267.087 1964.51 266.869C1964.53 266.768 1964.62 266.644 1964.7 266.532C1964.78 266.404 1964.86 266.29 1964.83 266.24C1964.8 266.203 1964.69 266.22 1964.55 266.239C1964.33 266.269 1964.05 266.307 1963.94 266.156C1963.53 265.595 1963.17 264.895 1962.82 264.21C1962.42 263.44 1962.04 262.692 1961.61 262.178C1961.13 261.597 1960.87 260.49 1960.61 259.393C1960.42 258.617 1960.24 257.846 1959.99 257.252C1959.74 256.67 1959.2 256.222 1958.69 255.801C1958.07 255.298 1957.47 254.797 1957.42 254.091C1957.41 253.948 1957.68 253.594 1958.01 253.152C1958.24 252.839 1958.51 252.481 1958.74 252.122C1958.32 251.451 1957.9 250.761 1957.51 250.078C1957.45 250.084 1957.38 250.09 1957.32 250.096C1957.32 250.097 1957.32 250.097 1957.32 250.097C1955.85 250.237 1953.85 250.42 1954.09 248.778C1954.15 248.358 1954.48 247.92 1954.77 247.527C1955.05 247.141 1955.31 246.796 1955.26 246.554C1955.2 246.277 1954.81 246.162 1954.37 246.016C1953.76 245.817 1953.08 245.595 1953.17 244.91C1953.18 244.863 1953.18 244.812 1953.19 244.76C1953.26 244.272 1953.34 243.519 1953.83 242.553C1953.16 240.959 1952.52 239.304 1951.93 237.647C1950.94 234.856 1950.04 231.982 1949.22 228.974C1948.81 227.481 1949.33 225.608 1950.74 223.809C1952.17 222.018 1954.39 220.583 1956.89 219.666C1959.39 218.738 1961.96 218.265 1964.1 218.185C1966.25 218.129 1967.8 218.509 1968.58 219.43C1969.84 220.909 1971.2 222.444 1972.57 223.999C1972.68 224.068 1972.77 224.13 1972.87 224.197C1973.57 224.693 1974.61 224.982 1975.62 225.234C1975.85 225.295 1976.09 225.356 1976.32 225.42Z" fill="black"/>
<path d="M2485.14 194.937C2479.19 205.984 2464.81 224.981 2456.7 235.229C2456.55 235.419 2456.41 235.609 2456.26 235.8C2454.35 238.228 2452.54 240.593 2450.46 243.288C2445.45 249.765 2438.71 258.562 2423.67 276.06C2419.49 281.324 2415.29 286.529 2411.03 291.725C2399.57 305.714 2387.94 319.418 2376.03 333.013C2340.14 373.901 2302.41 412.773 2264.08 450.988C2263.46 451.645 2262.83 452.305 2262.17 452.989C2249.69 466.05 2234.07 482.157 2223.83 491.808C2212.54 502.453 2204.2 510.089 2197.42 516.24C2196.36 517.199 2195.35 518.115 2194.37 518.995C2160.56 551.046 2125.24 582.909 2084.71 607.452C2083.78 608.033 2082.77 608.734 2081.73 609.501C2081.19 609.895 2080.7 610.268 2080.02 610.78C2079.83 610.917 2079.69 611.029 2079.21 611.358C2079.09 611.436 2078.9 611.574 2078.45 611.827C2078.31 611.905 2078.06 612.048 2077.68 612.215C2077.49 612.3 2077.26 612.398 2076.94 612.508C2076.86 612.535 2076.78 612.563 2076.69 612.592C2076.64 612.606 2076.59 612.62 2076.54 612.635C2076.42 612.67 2076.29 612.707 2076.14 612.743C2075.55 612.877 2074.74 613.066 2073.33 612.973C2071.99 612.883 2069.62 612.331 2067.66 610.353C2065.59 608.132 2065.35 606.465 2065.13 605.112C2064.91 602.429 2065.49 601.437 2065.72 600.703C2066.06 599.905 2066.1 599.906 2066.2 599.708C2066.29 599.547 2066.36 599.416 2066.44 599.303C2066.58 599.077 2066.68 598.92 2066.78 598.789C2066.86 598.67 2066.89 598.63 2066.95 598.563C2067.04 598.442 2067.11 598.347 2067.18 598.263C2067.3 598.125 2067.36 598.045 2067.44 597.955C2067.94 597.399 2068.16 597.182 2068.45 596.871C2074.09 591.035 2079.98 585.479 2086.1 580.203C2100.09 568.116 2115.12 557.608 2130.2 547.684C2140.08 541.182 2149.98 534.913 2159.83 528.599C2164.08 525.878 2168.39 523.398 2172.77 521.058C2181.5 516.14 2189.87 512.034 2197.8 508.416C2208.87 503.378 2218.96 499.386 2227.35 496.434C2247.63 489.265 2271.14 483.421 2288.7 479.664C2291.58 479.044 2294.27 478.479 2296.8 477.957C2310.64 474.651 2324.6 471.671 2338.59 469.011C2339.54 468.95 2340.51 468.893 2341.49 468.839C2343.82 468.711 2346.25 468.521 2348.82 468.275C2360.24 467.21 2374.44 465.858 2394.19 468.477C2404.78 469.923 2416.95 472.653 2430.5 477.692C2437.68 480.387 2441.72 482.63 2444.76 484.404C2445.59 484.87 2446.34 485.337 2447.03 485.805C2448.17 486.573 2449.29 487.426 2450.31 488.279C2453.85 491.241 2457.56 494.766 2460.47 499.687C2464.27 506.041 2466.43 514.407 2465.95 524.237C2463.2 554.862 2462.33 566.693 2463.44 576.276C2463.68 579.028 2463.94 581.497 2464.13 584.001C2464.34 586.64 2464.51 589.617 2464.73 592.71C2465.2 599.366 2465.72 606.664 2466.28 612.633C2466.85 619.687 2470.47 633.277 2474.9 642.742C2476.53 646.331 2478.56 651.191 2481.46 656.684C2484.45 662.351 2488.42 668.624 2493.59 674.774C2496.51 678.254 2499.32 681.292 2501.94 684.101C2503.01 685.25 2507.17 686.456 2510.9 686.702C2514.7 687.024 2518.3 686.929 2521.61 686.774C2522.73 686.719 2523.82 686.652 2524.91 686.577C2525.97 686.497 2527 686.378 2528.04 686.219C2534.11 685.348 2541.86 682.661 2549.72 678.514C2559.13 673.605 2568.69 667.056 2576.18 661.948C2581.92 658.42 2587.82 654.814 2594.07 651.402L2595.15 650.857C2611.65 643.872 2628.59 639.262 2645.89 636.314C2654.74 634.82 2663.55 634.408 2671.13 635.004L2671.2 634.999C2674.16 635.268 2676.93 635.637 2679.45 636.101C2688.18 637.718 2692.98 640.291 2693.06 642.992C2693.13 645.722 2688.4 648.396 2680.13 650.785C2677.73 651.477 2675.1 652.133 2672.25 652.745L2672.31 652.742C2665.59 654.279 2657.83 655.895 2649.83 657.542C2634.22 660.765 2618.81 665.597 2604.62 672.162L2605.54 671.7C2599.4 675.311 2593.27 679.361 2586.97 683.488C2569.9 694.317 2551.37 708.058 2525.77 709.618C2516.17 709.715 2506.2 710.946 2493.25 704.871C2490.51 703.432 2487.67 701.39 2485.29 698.663C2472.38 684.463 2460.69 666.349 2454.27 647.336C2453.51 645.16 2452.81 643.016 2452.14 640.813C2446.29 624.19 2443.45 607.022 2442.23 594.469C2442.16 593.712 2442.1 592.973 2442.04 592.251C2441.21 581.307 2441.96 573.588 2442.59 567.093C2443.04 562.636 2443.52 558.734 2443.79 554.835C2443.94 552.736 2444.13 549.889 2444.35 546.498C2445.25 533.444 2447.01 506.757 2437.94 503.286C2437.55 503.033 2437.12 502.778 2436.63 502.524C2429.02 498.753 2420.34 494.903 2411.74 491.988C2398.21 487.29 2384.92 485.263 2378.22 485.284C2369.87 485.221 2360.69 485.63 2351.9 486.916C2348.05 487.476 2344.31 488.03 2340.67 488.591C2328.75 490.419 2318.37 492.286 2312.6 493.97C2305.73 495.981 2299.71 497.083 2290.81 498.869C2284.65 500.117 2277.09 501.694 2266.94 504.355C2255.22 507.444 2246.95 509.601 2239.92 511.514C2230.05 514.238 2222.67 516.411 2212.2 521.121C2200.61 526.35 2188.83 532.131 2179.73 536.786C2176.31 538.526 2172.64 540.615 2168.97 542.972C2168.1 543.527 2167.24 544.084 2166.37 544.643C2159.94 548.767 2153.2 553.086 2146.95 556.825C2141.8 559.905 2137.38 562.184 2133.49 564.23C2132.28 564.871 2131.12 565.481 2130 566.096C2126.08 568.776 2122.19 571.499 2118.37 574.288C2117.8 574.806 2117.21 575.354 2116.59 575.93C2113.49 578.818 2109.72 582.391 2104.99 586.616C2097.5 593.31 2090.83 598.956 2084.11 605.311C2082.99 606.372 2081.88 607.437 2080.76 608.547C2080.54 608.762 2080.28 609.029 2080.24 609.057C2080.26 609.023 2080.22 609.105 2080.57 608.629C2080.63 608.532 2080.72 608.409 2080.83 608.223C2080.89 608.13 2080.96 608.02 2081.03 607.883C2081.07 607.814 2081.11 607.739 2081.15 607.654C2081.16 607.633 2081.22 607.515 2081.28 607.398C2081.33 607.279 2081.39 607.144 2081.45 606.986C2081.66 606.335 2082.17 605.435 2081.95 603.057C2081.75 601.861 2081.51 600.388 2079.7 598.442C2077.99 596.704 2075.9 596.184 2074.7 596.092C2072.24 595.975 2071.59 596.502 2071.44 596.488C2071.17 596.583 2070.97 596.666 2070.8 596.738C2070.48 596.881 2070.29 596.991 2070.16 597.059C2070.08 597.108 2070.01 597.149 2069.95 597.183C2069.85 597.249 2069.77 597.302 2069.74 597.322C2069.6 597.419 2069.62 597.407 2069.65 597.393C2069.67 597.379 2069.72 597.341 2069.78 597.306C2070.25 596.974 2070.9 596.493 2071.52 596.048C2072.79 595.138 2074.14 594.198 2075.66 593.257C2078.54 591.49 2081.48 589.64 2084.52 587.597C2089.45 584.287 2094.91 580.273 2100.17 576.16C2108 570.056 2115.54 563.633 2120.93 559.451C2122.95 557.881 2124.86 556.718 2126.75 555.553C2126.76 555.549 2126.77 555.544 2126.78 555.539C2126.91 555.459 2127.04 555.379 2127.17 555.298C2139.79 544.302 2152.01 532.761 2163.99 520.935C2164.98 519.872 2166 518.779 2167.01 517.694C2171.82 512.511 2176.6 507.273 2179.35 503.762C2179.99 502.956 2180.87 501.925 2181.95 500.698C2186 496.101 2192.83 488.884 2199.9 481.364C2205.76 475.138 2211.83 468.653 2216.64 463.299C2219.45 460.173 2222.53 457.525 2225.64 454.861C2228.59 452.328 2231.55 449.784 2234.53 446.615C2236 445.053 2237.52 443.288 2239.16 441.386C2240.6 439.723 2242.1 437.98 2243.73 436.17C2245.26 434.487 2248.88 431.018 2253.51 426.563C2256.39 423.791 2259.62 420.672 2263.01 417.327C2271.53 408.139 2280.01 398.914 2288.45 389.658C2290.02 387.551 2291.29 385.624 2292.15 383.978C2292.76 382.795 2293.2 381.703 2293.65 380.582C2294.26 379.058 2294.89 377.477 2296.02 375.548C2296.9 374.04 2298.15 372.463 2299.19 371.582C2299.67 371.171 2300.1 370.912 2300.49 370.676C2300.94 370.406 2301.34 370.165 2301.71 369.761C2301.97 369.47 2302.18 369.099 2302.43 368.644C2302.83 367.917 2303.35 366.974 2304.43 365.795C2308.43 361.41 2313.05 356.493 2317.55 351.663C2322.57 346.288 2327.43 341.015 2331.18 336.706C2335.38 331.881 2341.73 325.305 2348 318.686C2349.74 316.85 2351.47 315.018 2353.15 313.229C2355.75 310.442 2358.17 307.804 2360.4 305.303C2363.97 301.297 2367.42 296.903 2370.75 292.624C2374.73 287.514 2378.55 282.554 2382.19 278.669C2382.93 277.885 2384.08 277.138 2385.56 276.159C2386.6 275.472 2387.79 274.682 2389.07 273.729C2393.36 268.488 2397.61 263.268 2401.87 257.998C2401.98 257.777 2402.09 257.55 2402.2 257.322C2402.2 257.318 2402.2 257.315 2402.2 257.311C2404.64 252.151 2407.94 245.132 2415.34 237.379C2417.23 235.392 2418.66 234.361 2419.95 233.434C2421.23 232.501 2422.38 231.667 2423.64 230.16C2425.05 228.471 2426.49 226.143 2427.97 223.701C2430.11 220.198 2432.45 216.316 2435.49 212.951C2435.7 212.719 2435.93 212.469 2436.16 212.209C2438.37 209.752 2441.61 206.14 2445.22 202.739C2453.88 191.257 2462.34 179.722 2470.45 167.953C2472.13 165.506 2473.84 162.981 2475.46 160.541C2487.14 142.909 2498.95 125.367 2510.32 107.734C2516.64 97.941 2523.3 88.9963 2528.76 82.7609C2534.23 76.5703 2538.18 73.2555 2540.68 74.2084C2543.19 75.0923 2543.85 80.8004 2541.64 89.4108C2539.46 98.0274 2534.69 108.684 2528.77 118.962C2519.08 135.743 2509.15 152.222 2499.28 168.684C2498.79 169.573 2498.31 170.433 2497.81 171.312C2497.34 172.136 2496.89 172.961 2496.43 173.789C2493.26 179.562 2490.38 185.106 2487.46 190.603C2486.68 192.074 2485.93 193.484 2485.14 194.937Z" fill="black"/>
<path d="M2836.65 776.072C2833.14 775.424 2828.09 772.811 2823.9 769.203C2821.54 767.185 2819.64 765.078 2818.29 763.456C2818.22 763.374 2818.16 763.292 2818.09 763.21C2817.23 762.158 2816.41 761.17 2815.52 760.02C2813.44 757.273 2810.54 753.428 2807.29 745.141C2806.13 742.87 2805.07 740.542 2804.12 738.239C2794.99 715.303 2793.3 692.203 2793.86 669.63C2793.9 666.276 2794.49 662.85 2795.55 659.739C2795.68 659.273 2795.82 658.805 2795.98 658.338C2799.08 648.996 2805.98 642.297 2809.45 639.374C2809.48 639.35 2809.51 639.326 2809.54 639.302C2816.35 633.553 2821.37 632.298 2825.2 631.112C2845.94 624.437 2864.41 626.126 2882.82 627.085C2883.69 627.143 2884.53 627.212 2885.38 627.296C2891.95 627.936 2898.5 629.399 2904.75 631.727C2910.5 633.861 2915.96 636.742 2920.95 640.114C2923.99 641.88 2926.8 643.704 2929.3 645.459C2930.31 646.173 2931.28 646.886 2932.19 647.569C2935.26 650.028 2937.38 652.755 2938.82 655.072C2943.66 663.161 2944.84 671.29 2946.15 676.88C2946.35 677.802 2946.54 678.661 2946.71 679.451C2947.14 680.743 2947.56 682.016 2948 683.274C2949.27 687.045 2950.11 690.979 2950.49 694.963C2950.41 695.352 2950.32 695.738 2950.22 696.134C2948.96 700.996 2948.81 706.796 2946.16 715.326C2944.99 719.01 2943.3 723.157 2940.59 727.621C2938.84 730.488 2937.35 731.573 2936.17 732.44C2935.82 732.687 2935.48 732.929 2935.17 733.175C2934.32 733.836 2933.78 734.798 2933.21 735.93C2933.06 736.233 2932.91 736.551 2932.74 736.879C2931.78 738.847 2930.49 741.213 2927.65 743.001C2918.62 748.474 2915.79 751.705 2913.59 754.541C2912.94 755.344 2912.34 756.068 2911.66 756.696C2909.44 758.745 2905.58 760.549 2902.51 761.544C2900.09 762.35 2895.99 765.208 2892.92 767.519C2891.77 768.397 2890.04 769.275 2888 770.275C2885.89 771.31 2883.43 772.473 2880.9 773.926C2876.1 776.664 2872.92 778.314 2870.44 779.58C2869.33 780.113 2868.3 780.551 2867.31 780.931C2866.2 781.357 2865.13 781.71 2864.05 782.024C2860.64 783.031 2856.09 783.644 2851.54 783.357C2846.07 783.064 2840.82 781.513 2837.09 780.088C2836.74 779.913 2836.4 779.733 2836.06 779.55L2834.7 778.765C2828.7 774.42 2824.68 769.73 2820.96 764.9C2819.53 763.024 2818.27 761.195 2817.1 759.487C2814.87 756.211 2813.68 752.694 2813.53 749.32C2813.4 745.962 2814.42 743.102 2816.5 741.357C2818.59 739.625 2821.61 739.139 2824.96 740.079C2828.3 741.005 2831.7 743.386 2834.24 746.359C2835.56 747.899 2836.81 749.33 2838.04 750.627C2841.22 754.004 2844.78 757.112 2847.87 758.868L2846.71 758.2C2847.07 758.352 2847.43 758.493 2847.78 758.624C2852.94 760.507 2857.42 760.335 2861.96 758.443C2863.49 757.813 2865.04 757.165 2866.56 756.519C2872.5 754.002 2878.38 751.331 2884.12 748.485C2884.71 748.193 2885.3 747.898 2885.88 747.601C2890.33 744.496 2894.57 741.287 2897.54 739.133C2900.01 737.357 2902 736.425 2903.7 735.595C2904.87 735.025 2905.89 734.509 2906.78 733.796C2907.26 733.416 2907.9 732.877 2908.64 732.221C2911.17 730.018 2914.93 726.435 2918.17 723.055C2918.82 722.391 2919.48 721.692 2920.14 720.986C2921.8 719.217 2923.8 717.034 2925.5 714.735C2927.96 711.464 2929.69 707.956 2929.86 706.065C2930.2 702.758 2930.83 699.141 2930.87 695.858C2930.92 692.869 2930.51 690.194 2929.68 688.791C2929.64 688.709 2929.6 688.631 2929.56 688.555C2928.33 686.351 2927.98 684.277 2927.48 681.296C2927.14 679.233 2926.74 676.71 2925.89 673.583C2924.91 669.985 2924.39 667.644 2923.84 665.775C2923.11 663.304 2922.33 661.516 2920.37 660.391C2920.26 660.314 2920.14 660.237 2920.02 660.16C2916.63 657.994 2913.3 655.912 2910.89 654.013C2909.8 653.142 2908.44 652.305 2907.01 651.508C2905.1 650.448 2903.07 649.472 2901.26 648.427C2899.77 647.567 2898.62 646.586 2897.55 645.736C2897.22 645.473 2896.9 645.223 2896.58 644.995C2895.24 644.588 2893.88 644.23 2892.51 643.935C2892.27 643.967 2892.01 644.006 2891.75 644.049C2890.43 644.264 2888.84 644.57 2886.95 644.623C2885.2 644.674 2883.61 644.552 2882.01 644.375C2880.77 644.246 2879.56 644.07 2878.31 643.898C2875.96 643.573 2873.5 643.26 2870.69 643.337C2868.78 643.389 2866.59 643.62 2864.47 643.886C2861.29 644.279 2858.21 644.76 2856.05 644.726C2855.26 644.711 2854.52 644.44 2853.82 644.174C2853.82 644.172 2853.81 644.17 2853.81 644.168C2853.76 644.15 2853.71 644.133 2853.66 644.115C2848.48 644.846 2843.41 645.894 2838.78 647.417C2838.4 647.606 2838.01 647.8 2837.63 647.994C2835.79 648.94 2834.15 649.953 2833.28 650.913C2832.34 651.936 2829.65 653.553 2827.99 655.378C2827.6 655.797 2827.26 656.215 2826.99 656.62C2825.86 657.988 2824.92 659.221 2824.24 660.287C2823.63 661.25 2822.74 661.767 2821.89 662.301C2821.09 662.794 2820.31 663.313 2819.95 664.079C2819.77 664.461 2819.69 664.906 2819.65 665.345C2819.61 665.732 2819.6 666.113 2819.57 666.462C2819.53 666.792 2819.15 667.34 2818.81 668.109C2818.68 668.416 2818.56 668.765 2818.47 669.168C2818.43 669.682 2818.38 670.208 2818.35 670.743C2818.66 674.662 2819.06 678.555 2819.54 682.433C2819.9 683.215 2820.34 683.894 2820.89 684.404C2821.28 684.77 2821.73 685.069 2822.2 685.374C2822.84 685.788 2823.49 686.208 2824.04 686.828C2824.48 687.31 2824.69 687.902 2824.58 688.325C2824.52 688.523 2824.4 688.683 2824.29 688.828C2824.16 688.995 2824.05 689.144 2824.07 689.308C2824.08 689.426 2824.2 689.54 2824.34 689.68C2824.57 689.903 2824.86 690.192 2824.92 690.672C2825.16 692.45 2825.35 694.488 2825.56 696.47C2825.8 698.674 2826.08 700.817 2826.47 702.486C2826.9 704.358 2827.06 707.085 2827.31 709.82C2827.49 711.723 2827.71 713.615 2828.04 715.198C2828.36 716.747 2829.03 718.247 2829.71 719.683C2830.52 721.387 2831.34 722.979 2831.56 724.503C2831.6 724.811 2831.35 725.302 2831.04 725.936C2830.83 726.386 2830.59 726.905 2830.4 727.462C2831.13 729.242 2831.9 731.002 2832.7 732.679C2832.78 732.714 2832.86 732.749 2832.95 732.784C2832.95 732.785 2832.95 732.785 2832.95 732.785C2834.83 733.58 2837.3 734.44 2837.81 737.221C2837.95 737.936 2837.77 738.552 2837.62 739.133C2837.47 739.698 2837.34 740.208 2837.56 740.651C2837.82 741.158 2838.44 741.521 2839.1 741.858C2840.04 742.352 2841.05 742.788 2841.43 743.782C2841.46 743.851 2841.48 743.926 2841.52 744.002C2841.77 744.633 2842.13 745.499 2842.37 746.597C2842.4 746.755 2842.43 746.92 2842.46 747.093C2844.68 749.154 2847.66 751.036 2850.85 752.375C2855.66 754.399 2861.01 755.288 2866.42 754.741C2867.14 754.658 2867.82 754.572 2868.52 754.473C2871.79 754.022 2874.75 754.258 2876.74 755.279C2877.76 755.771 2878.52 756.617 2879.7 757.053C2880.87 757.52 2882.25 757.115 2883.57 757.091C2884.86 757.047 2886.39 757.77 2886.85 760.005C2887.33 762.207 2886.38 765.07 2884.96 767.214C2882.03 771.6 2877.74 774.161 2873.44 775.495C2872.52 775.772 2871.64 776.023 2870.74 776.266C2863.95 778.059 2856.66 778.497 2849.57 777.488C2849.14 777.46 2848.7 777.424 2848.27 777.381C2845.06 777.053 2841.97 776.876 2838.83 776.431C2838.1 776.328 2837.38 776.21 2836.65 776.072Z" fill="black"/>
</svg>
