<svg width="243" height="221" viewBox="0 0 243 221" fill="none" xmlns="http://www.w3.org/2000/svg">
<path d="M29.7084 104.317C27.6741 113.137 25.9653 122.379 26.7349 128.357C27.9746 138.55 30.1999 149.078 33.5778 157.678C35.271 162.009 36.2354 165.582 37.2091 168.956C37.6811 170.615 38.1359 172.229 38.5248 173.464C38.7031 174.047 38.9256 174.636 38.8599 174.496C38.8358 174.45 38.7857 174.339 38.6341 174.066C38.4611 173.776 38.2567 173.342 37.4273 172.325C37.1816 172.03 36.8809 171.695 36.4904 171.317C36.2932 171.126 36.0827 170.933 35.8248 170.715C35.5164 170.454 35.1632 170.179 34.7522 169.897C33.8734 169.315 33.0657 168.798 31.3273 168.19C29.6767 167.627 27.5484 167.309 25.4166 167.542C23.2954 167.75 21.2273 168.537 19.8271 169.373C18.5913 170.097 17.6686 170.885 16.973 171.59C15.6757 172.948 15.3188 173.627 14.8953 174.336C13.9421 176.114 13.9486 176.45 13.7975 176.84C13.6936 177.172 13.6618 177.307 13.639 177.397C13.6002 177.558 13.6171 177.504 13.6396 177.411C13.6894 177.208 13.7814 176.802 13.8963 176.339C14.1343 175.398 14.4495 174.196 15.0783 172.64C15.3484 172.07 15.7951 170.685 16.3746 168.896C17.6723 164.983 18.5802 165.503 19.0733 164.455C20.4885 161.558 20.1357 159.399 21.0867 157.341C24.0395 151.027 26.9849 145.417 30.0276 139.849C31.5117 137.283 32.708 134.256 35.5156 129.719C38.2378 125.509 40.5769 123.903 41.815 123.349C43.9634 122.7 44.0145 124.791 46.128 123.398C52.422 119.377 45.1738 120.824 46.711 118.161C53.2972 112.365 60.6671 107.54 67.9618 103.446C66.4276 104.853 64.9093 106.278 63.3858 107.731C66.4809 105.712 71.1468 103.49 66.6369 107.625C67.9002 107.133 69.1369 106.734 70.4313 106.248C69.979 104.806 75.3514 101.423 75.4349 100.414C75.5079 99.3799 72.5211 101.365 72.4994 101.299C72.3541 100.847 74.8156 99.383 77.7513 97.9262C81.4547 96.0885 85.8602 94.2259 86.4028 94.0038C88.9198 92.9806 87.7073 95.6788 89.6622 94.4767C93.0322 92.4134 88.9946 90.4804 95.989 92.1706C97.1116 89.7832 97.6629 90.4092 100.081 89.232C100.399 89.0763 99.7277 88.4076 99.8537 88.3131C103.122 85.7956 101.162 88.7607 101.224 88.8309C102.283 90.0221 105.801 87.358 106.686 87.0571C114.767 84.2944 121.249 82.0534 128.477 79.0556C131.14 77.96 133.867 76.7385 136.959 75.4213C138.085 74.9637 140.063 73.8669 142.704 73.0564C145.377 72.1779 148.602 72.3468 150.25 72.6714C150.673 72.7466 151.035 72.8226 151.321 72.899C153.774 73.5581 152.255 74.4454 153.466 75.1895C155.978 72.8898 158.089 72.9277 162.411 75.5969C164.546 74.0359 164.008 75.5182 167.431 75.8903C170.331 76.2963 175.57 74.8629 178.954 78.913C176.559 77.5085 175.913 77.6918 174.89 77.6129C173.924 77.6053 172.91 77.6887 170.855 77.444C169.5 77.1205 155.821 74.4368 156.49 76.6691C156.831 77.781 161.489 77.6884 161.633 77.9246C162.41 79.228 159.661 80.0735 157.551 79.1966C158.138 79.0741 158.852 78.9742 159.479 78.8638C154.758 76.5563 157.236 82.4908 154.271 77.1853C153.899 76.5357 154.175 75.9708 153.505 75.2354C153.304 75.4593 154.144 76.2388 153.312 76.2136C152.459 76.1849 151.058 74.7484 150.666 75.7074C150.081 77.0944 153.627 77.0861 153.87 77.2194C153.875 77.2112 153.879 77.2029 153.883 77.1947C156.043 78.3505 151.248 77.6282 150.996 77.737C149.807 78.2256 149.976 78.8171 149.224 79.253C148.971 79.4149 148.616 79.5583 148.107 79.7028C146.942 79.9438 145.032 79.8688 144.098 80.3495C143.265 80.7546 144.811 81.0056 144.282 81.3219C143.782 81.6277 142.828 81.4181 142.114 81.9051C141.814 82.114 142.137 82.8176 141.988 82.9115C140.379 83.9543 140.858 81.9701 139.264 82.8263C138.225 83.3837 135.239 86.5653 137.95 85.7067C136.822 86.4415 135.681 87.1488 134.528 87.8727C135.407 87.683 136.253 87.4286 137.122 87.2933C135.418 87.864 134.697 88.8756 133.924 89.7187C133.613 90.0698 133.279 90.3975 132.862 90.6448C131.479 91.465 129.478 90.7115 128.261 92.2164C125.904 95.121 132.197 91.3056 134.264 90.3841C134.492 90.281 134.667 90.2121 134.78 90.1864C135.013 90.1338 134.871 90.6073 134.634 91.1084C134.431 91.5708 134.145 92.0581 134.035 92.1335C133.063 92.8067 131.4 92.6641 130.611 93.1174C127.765 94.7594 126.536 96.7263 123.875 98.3912C114.825 104.055 103.46 110.895 94.8309 115.975C92.5517 117.315 90.5941 117.679 89.1443 118.077C88.55 118.238 88.0476 118.404 87.6486 118.646C84.4269 120.614 84.6377 121.833 81.9201 123.584C77.8914 126.174 71.9187 129.133 68.8024 131.391C66.6218 132.937 65.569 135.363 65.0865 135.834C63.4101 137.469 61.685 139.237 59.8357 141.185C58.8463 142.291 58.4352 142.908 57.5105 144.739C56.6166 146.539 55.3635 149.429 53.9819 152.12C52.7329 154.573 51.5911 156.867 50.6102 158.902C48.8844 162.491 46.9999 163.672 46.6992 164.425C45.4449 167.657 46.7937 167.236 45.6631 169.697C45.0722 171.015 44.0238 170.905 43.9173 171.066C42.9954 172.548 44.1563 173.296 43.7813 174.525C43.0594 176.789 42.6152 178.891 40.9401 183.014C41.08 182.602 41.0349 182.582 40.9578 182.815C40.9151 182.94 40.8625 183.121 40.7661 183.494C40.7154 183.688 40.6585 183.92 40.5418 184.348C40.4793 184.574 40.4071 184.838 40.2618 185.285C40.0716 185.787 40.0235 186.241 39.0613 188.021C38.3242 189.152 37.8887 190.328 34.9809 192.589C33.8222 193.48 31.1144 194.894 28.3599 195.136C25.5884 195.465 22.7719 194.744 21.093 193.932C19.5341 193.209 18.3769 192.311 17.669 191.679C17.009 191.089 16.5207 190.552 16.1211 190.069C15.4361 189.234 15.0119 188.552 14.7326 188.082C13.6333 186.149 13.3953 185.292 13.0564 184.391C12.4714 182.7 12.1485 181.442 11.8192 180.198C11.1872 177.757 10.6676 175.571 10.0754 173.489C9.91789 172.932 10.5008 172.809 10.3631 172.463C9.75779 171.01 9.08171 171.962 8.53565 170.514C8.1939 169.628 7.87335 168.782 7.58785 168.064C6.42609 165.146 5.51927 162.171 4.70375 159.16C4.58942 158.735 5.26217 158.327 4.98793 157.369C4.71538 156.407 3.81324 155.87 3.45817 154.343C2.53814 150.354 2.55481 146.3 1.86672 142.147C1.75238 141.461 0.698962 140.761 0.541228 139.721C0.17551 137.339 0.174409 134.063 0.128954 131.387C0.0825298 130.154 0.0712642 129.04 0.0349953 128.135C-0.250498 117.067 1.25143 108.623 3.02174 100.317C3.46071 98.3757 4.68901 96.8864 4.94326 95.9045C5.51659 93.6936 4.33205 95.1799 4.86868 92.9401C5.16671 91.7026 5.46446 90.4837 5.76491 89.2609C7.98351 80.0879 12.2583 72.2622 15.9642 65.5943C20.5224 57.483 25.2712 49.9721 30.362 42.3096C31.0593 41.2678 31.7767 40.2402 32.5129 39.2281C37.4526 32.2985 44.1415 24.5249 50.0127 19.7722C52.2576 17.9419 53.4076 18.2264 54.8772 17.1983C55.0289 17.0892 55.1845 16.9703 55.3456 16.8393C58.9792 13.9877 58.8862 12.2925 63.1742 9.62568C66.6523 7.53802 71.3804 7.06088 75.0761 5.77891C78.7882 4.51597 80.2144 2.719 84.534 1.69765C88.0931 0.869816 93.0233 0.898188 96.6328 0.506051C98.0556 0.345954 99.4597 0.20609 100.843 0.0793155C117.652 -0.588247 128.737 3.09861 140.972 5.64545C152.312 8.38086 162.16 12.2682 171.871 16.3308C178.727 19.221 185.617 22.5678 192.255 26.5146C193.661 27.3496 195.082 28.2073 196.504 29.088C205.903 34.8529 215.185 42.4591 221.668 51.4284C222.364 52.4076 220.184 51.9214 222.877 54.6007C224.084 55.8266 226.219 57.0598 228.578 59.7564C229.045 60.3001 229.514 60.8956 229.98 61.5598C234.855 68.4 237.927 76.5899 239.883 83.5963C243.219 96.1849 242.402 106.327 242.153 116.657C241.793 126.171 239.42 134.473 237.279 142.115C236.848 143.626 236.407 145.112 235.963 146.583C233.446 154.837 230.963 162.885 228.1 171.107C225.009 180.075 220.103 189.924 213.79 197.609C201.669 211.734 187.475 217.459 172.544 219.6C168.285 219.904 163.426 220.228 158.493 219.854L157.518 219.996C155.19 219.568 152.984 218.991 151.082 218.377C150.438 218.205 149.794 218.026 149.153 217.838C147.453 217.341 147.962 213.915 148.83 212.861C149.427 213.211 150.003 213.612 150.596 214.02C150.954 214.284 151.319 214.554 151.701 214.818C152.463 210.577 152.366 211.639 156.726 211.633L156.876 211.612C156.914 211.607 156.953 211.603 156.992 211.599C159.752 211.275 157.229 209.967 158.548 209.17C160.254 208.179 168.306 203.984 167.338 207.093C167.755 206.494 168.138 205.925 168.55 205.34C168.718 205.287 168.883 205.235 169.052 205.182C174.77 203.297 180.148 200.475 184.983 197.182C185.844 196.587 185.477 195.798 186.335 195.179C188.605 193.504 190.786 192.836 193.045 191.1C194.254 190.146 193.816 189.233 195.335 188.04C196.799 186.832 197.795 187.807 198.501 184.916C197.786 184.935 197.833 184.533 198.247 183.919C199.426 182.292 202.658 179.185 203.692 177.488C203.94 177.136 204.475 173.538 205.483 172.089C206.519 170.646 208.688 168.651 209.391 165.82C209.641 164.816 209.263 163.877 209.287 162.892C209.295 162.575 209.35 162.238 209.475 161.905C209.842 160.934 211.307 160.186 211.856 158.967C212.409 157.753 212.669 154.748 212.844 154.252C213.482 152.454 213.414 154.684 213.92 153.481C216.066 148.344 218.52 142.414 219.813 137.016C219.99 136.284 220.145 135.574 220.282 134.866C220.424 134.13 219.302 134.89 219.3 134.787C219.587 129.64 219.975 132.54 221.082 131.417C222.289 130.287 223.559 121.015 221.877 120.897C223.813 120.827 222.526 118.737 222.481 118.266C222.415 117.261 222.812 116.902 223.149 116.506C223.455 116.083 223.706 115.649 223.465 114.613C223.279 113.823 222.162 115.359 222.196 114.511C222.276 112.421 224.057 110.513 224.152 107.726C224.174 107.052 223.371 106.863 223.347 105.686C223.348 104.495 223.955 99.5642 222.445 101.93C223.548 98.9075 222.771 98.3482 222.321 95.1255C222.2 94.3285 223.292 93.025 222.51 91.4656C222.242 90.9466 221.048 91.2657 220.827 90.5085C220.747 90.2429 220.693 89.9711 220.66 89.7034C220.351 87.8483 220.663 85.8176 219.907 83.6699C218.311 79.1141 215.435 75.2429 212.816 71.3727C212.682 71.1753 212.549 70.9762 212.417 70.7752C211.624 69.5856 212.84 69.1023 211.538 67.433C211.345 67.1837 208.903 65.9219 208.016 64.7876C207.513 64.0846 204.937 60.2771 204.294 59.6039C203.271 58.4706 202.243 59.1686 201.802 58.434C200.501 56.3297 203.096 56.2615 199.328 56.1891C199.494 54.5492 198.091 53.5677 198.698 51.9339C196.784 52.7291 196.849 50.5538 194.912 49.8889C192.966 49.2203 189.729 51.2892 191.447 47.8841C190.52 47.7578 187.339 46.5844 186.399 46.2226C186.321 46.1907 186.259 46.1637 186.214 46.1424C184.463 45.3088 185.882 44.9212 184.539 44.3165C184.302 44.2111 184.187 44.9611 182.781 44.099C181.888 43.4868 174.831 39.8482 174.416 39.5952C169.961 36.2673 177.41 40.2036 178.792 40.0908C178.885 40.3663 178.977 40.6423 179.083 40.9224C181.059 42.3268 180.602 40.2645 179.788 39.4245C178.976 38.5831 176.811 38.3161 176.214 37.4433C175.915 37.0054 177.011 35.3745 178.17 36.2006C177.081 35.005 179.204 35.3389 178.916 34.5737C178.614 33.7023 172.477 30.6705 172.01 31.6627C173.155 32.2062 174.61 32.8229 175.754 33.4052C176.436 35.7782 169.334 39.4206 166.168 35.3723C164.414 33.1702 167.066 33.0148 165.307 32.4323C164.695 32.2319 163.55 31.9765 161.509 31.5865C162.617 32.1089 163.512 32.6574 164.512 33.1483C164.097 34.4825 163.004 32.3857 161.975 32.4518C161.482 32.4867 163.659 34.425 161.328 33.8419C160.165 31.2333 157.96 32.5068 154.772 31.3197C155.783 31.3226 156.798 31.3342 157.814 31.3479C152.917 27.9087 165.696 32.3286 155.417 27.5088C156.716 27.9286 157.977 28.431 159.291 28.8386C158.936 27.9156 160.711 26.3051 160.317 25.6652C159.279 23.9826 156.834 23.8161 155.063 23.0535C154.286 22.7209 154.977 22.3578 154.911 22.3301C153.845 21.8718 153.795 22.7574 152.823 22.4651C151.607 22.0913 148.375 20.115 147.767 20.0235C146.219 19.7695 148.148 22.1645 147.961 22.2374C146.777 22.694 145.084 21.4474 144.863 22.4927C149.698 23.1729 162.28 28.9114 149.999 26.2802C152.643 29.0513 150.875 30.891 146.29 29.5128C142.488 28.4143 145.211 28.316 143.559 26.6899C143.349 26.4604 138.392 24.4892 137.947 25.1647C138.598 23.5798 137.274 21.6844 138.859 20.2871C139.095 20.077 141.244 20.7727 140.86 19.2076C140.674 18.4204 139.947 16.6342 140.356 15.8123C139.726 16.2931 139.067 16.8505 138.44 17.367C138.327 17.345 138.217 17.3231 138.11 17.3013C135.066 16.6807 134.734 15.9153 133.243 14.397C133.214 14.891 134.404 17.2804 132.016 16.0694C131.893 16.0022 131.951 15.2595 130.743 14.6003C128.293 13.2766 127.785 12.931 130.296 11.2965C124.551 11.2472 123.904 8.61042 117.953 8.21068C118.619 11.1555 120.739 10.8179 126.021 11.4336C126.105 12.1278 126.063 12.7874 126.147 13.4888C119.63 10.5451 122.959 11.4157 118.795 11.954C117.788 12.0692 112.683 10.8872 114.114 13.0101C114.454 13.4971 117.607 13.9967 117.118 14.618C117.026 14.7224 113.17 14.4147 112.858 14.2052C108.847 11.5439 116.95 10.5636 104.558 10.5131C104.213 10.5329 104.084 11.3361 103.424 11.4546C102.418 11.6408 102.189 11.0777 101.539 11.0011C101.394 10.9832 101.228 10.993 101.025 11.0479C99.9613 11.335 98.5844 12.6934 96.8731 11.6781C94.3879 10.2452 98.1159 8.76149 101.393 8.70317C102.414 8.67612 103.367 8.7946 104.107 9.04137C104.434 8.40152 103.356 7.84887 101.322 7.58631C95.6778 6.43562 81.5775 8.72697 80.5113 9.49928C74.4628 12.2326 84.8274 8.77696 85.5081 9.59769C85.8047 9.87786 86.4313 13.9169 88.5355 10.8557C89.1876 9.94174 85.7678 9.46492 87.6355 8.70269C89.5198 7.95279 88.9307 9.28153 89.0853 9.34063C89.6083 9.54738 91.5942 8.82105 91.8821 8.963C96.2187 11.0986 96.3179 14.9947 90.2797 9.91175C88.1639 11.5422 93.7094 12.8827 91.0043 14.1586C87.7947 15.7035 85.0216 14.4073 84.5539 14.4217C79.229 14.694 85.7051 15.8042 79.3999 16.6781C75.8515 17.3126 83.9871 13.2572 76.2103 16.0237C69.8223 18.7479 73.7298 18.249 74.1197 20.4028C74.2124 20.9196 71.2911 22.9156 75.5524 20.771C75.4586 20.198 75.4123 19.4111 75.5109 18.81C76.8198 18.7187 79.6019 20.7475 80.1884 20.6708C83.1496 20.2483 82.6745 18.9002 84.7926 20.1519C83.1247 18.6092 85.3901 19.2298 86.068 18.6866C88.6271 16.7009 84.7932 16.7588 91.5993 17.5944C90.6259 16.8359 89.7171 16.0953 88.7286 15.3663C89.5238 15.2014 90.3226 15.0469 91.1236 14.9032C92.6037 16.6499 96.7332 15.9392 93.1847 18.3292C97.7616 18.3445 99.5898 17.8471 100.503 16.2477C100.651 15.9892 101.178 15.8315 101.842 15.7419C101.946 15.7271 102.055 15.7148 102.168 15.7048C102.002 15.2858 101.726 13.9812 101.844 13.8119C102.969 12.3088 104.812 14.7952 104.18 15.7273C104.727 15.776 105.164 15.8437 105.317 15.8717C106.285 16.0525 104.361 16.8354 105.13 17.1513C105.376 17.2334 108.091 17.2304 108.124 17.5952C108.249 19.8839 103.962 17.6542 112.728 20.087C113.256 18.1103 108.961 17.9868 110.304 16.0095C111.799 13.867 113.809 17.2895 114.79 14.6015C114.915 15.0917 114.94 15.4876 115.025 16.0367C119.045 15.4915 118.658 17.8449 119.702 18.5744C121.714 19.9772 132.018 22.171 123.229 18.1152C124.624 18.2097 126.026 18.4286 127.417 18.5644C126.779 22.7417 126.337 20.8903 132.646 23.0626C134.041 23.5462 134.064 25.4565 135.978 23.6625C135.806 24.165 135.948 24.5302 136.269 24.8012C137.174 25.6054 139.691 25.5788 139.923 25.8557C141.06 27.2412 138.163 27.6662 135.701 27.1139C133.858 26.6942 132.153 25.7379 132.033 24.1165C130.108 25.1803 130.572 23.2734 128.756 23.1118C126.13 22.8845 125.706 23.1736 123.015 21.0973C119.627 22.4063 134.373 24.6147 124.983 25.2289C121.634 25.633 110.637 23.5906 102.406 24.5993C88.2905 25.9429 76.0531 30.5854 70.7132 36.1239C68.4655 38.1349 66.7199 39.7639 65.5561 40.884C59.2105 46.9754 55.2951 51.9206 52.1636 56.9269C47.8616 63.8191 43.8055 70.529 39.4187 78.4212C38.7945 79.557 38.1698 80.6985 37.551 81.8514C37.1053 82.6802 35.3329 86.1511 33.9845 88.7191C32.6092 91.2923 31.4817 93.2595 30.7212 91.7517C30.4392 91.3721 31.5888 85.9516 28.1762 89.6786C29.5156 89.171 29.286 91.9467 29.3553 92.1766C29.6348 93.7417 30.0183 94.613 30.324 95.2557C31.0236 97.3123 31.2777 97.5698 29.7084 104.317ZM5.73138 130.959C5.72612 130.889 5.72094 130.819 5.71581 130.751C5.64855 116.136 4.44894 126.985 0.83573 123.79C0.776543 125.807 0.807791 127.884 0.986186 130.04C1.15927 129.459 1.34223 128.885 1.53553 128.327C1.5354 128.325 1.53527 128.322 1.53514 128.32C2.79527 129.198 4.08013 130.034 5.38501 130.788C5.50044 130.845 5.61589 130.902 5.73138 130.959ZM140.853 86.8087C140.628 87.437 140.417 88.0623 140.161 88.7C138.649 89.2846 137.078 89.9227 135.507 90.5605C135.535 90.189 135.573 89.8087 135.609 89.4335C137.399 88.5379 139.173 87.6549 140.853 86.8087ZM106.114 8.57695C108.647 10.0293 108.626 7.68132 111.911 9.13943C111.712 7.38444 111.455 5.66268 111.172 3.92165C108.371 3.88597 107.719 4.45869 104.517 3.96287C104.889 4.51855 105.257 5.08195 105.589 5.64787C106.115 5.54689 106.657 5.43826 107.164 5.36384C107.824 6.92235 103.056 6.97492 106.105 8.58008C106.108 8.57903 106.111 8.57799 106.114 8.57695ZM131.599 12.2743C132.833 12.7891 137.686 14.8295 138.534 14.3092C141.452 12.5326 126.807 10.5657 137.843 11.0297C137.875 10.6895 138.001 10.3797 138.081 10.0547C136.19 9.47156 134.293 8.90897 132.359 8.35642C132.159 9.67841 131.788 10.9426 131.599 12.2743ZM14.1168 81.7279C15.0133 79.6348 18.5983 70.1522 15.7504 72.3822C14.8935 73.0305 14.8169 78.1272 14.0505 79.7368C13.5399 80.7827 12.9379 79.098 12.4598 81.426C12.9879 81.526 13.5538 81.6856 14.1159 81.7208C14.1162 81.7232 14.1165 81.7256 14.1168 81.7279ZM19.2609 87.864C19.7162 85.8348 20.248 83.7724 20.8994 81.7595C19.0049 82.6084 18.703 85.7999 16.8525 85.3191C16.922 84.7061 16.9992 84.0991 17.0859 83.4872C17.6456 83.2143 18.2039 82.9583 18.762 82.7123C18.537 80.6099 17.5911 81.3916 19.3306 78.3874C15.8687 79.0232 14.0217 78.8458 14.6295 85.7276C13.5662 84.0674 8.23366 83.4935 10.6941 88.1252C11.1575 88.9515 12.3868 86.3944 12.5117 86.4095C13.9175 86.4279 14.2858 88.1135 15.6342 88.065C16.2361 88.0467 16.7228 86.5393 17.5581 86.5853C17.955 86.6191 18.5444 88.351 19.2609 87.864ZM11.4805 90.1466C11.2272 89.7746 10.6521 89.8779 10.0557 90.3083C9.23712 90.8167 8.39576 91.8636 8.35445 93.0082C8.25074 95.8289 10.7208 92.4894 11.3505 90.6243C11.4067 90.452 11.4509 90.2913 11.4805 90.1466ZM140.862 86.8025C140.859 86.8046 140.856 86.8066 140.853 86.8087C140.854 86.8063 140.855 86.804 140.856 86.8016C140.858 86.8019 140.86 86.8022 140.862 86.8025ZM125.151 9.84025C126.837 9.49508 129.067 10.1085 129.149 8.99729C129.843 9.37813 130.55 9.76067 131.232 10.1427C131.301 9.81847 131.362 9.49194 131.43 9.17102C129.255 8.45031 127.06 7.73915 124.831 7.04791C124.93 7.97534 125.005 8.90161 125.151 9.84025ZM149.258 16.8862C151.981 17.9161 150.147 15.7195 150.984 15.237C151.832 14.754 154.106 16.1713 154.16 15.0918C152.543 14.4783 150.84 13.8557 149.164 13.274C149.261 14.493 149.208 15.6868 149.263 16.888C149.261 16.8874 149.259 16.8868 149.258 16.8862ZM19.273 185.144C18.7227 184.017 18.722 183.595 18.6674 183.155C18.6322 182.735 18.6594 182.445 18.6082 182.089C18.5213 181.409 18.1517 180.547 16.9156 178.808C16.9165 178.811 16.9174 178.813 16.9183 178.816C16.9901 179.926 17.0946 181.125 17.4369 182.616C17.6441 183.411 17.7997 184.168 18.5414 185.618C18.7153 185.95 19.0241 186.475 19.4445 187.027C20.0099 187.687 20.496 188.51 22.5998 189.695C23.5251 190.21 25.4572 190.871 27.3677 190.746C29.27 190.701 31.3233 189.758 32.1902 189.118C34.3165 187.551 34.6691 186.652 35.2071 185.839C35.8698 184.62 35.9118 184.294 36.0497 183.934C36.1573 183.61 36.214 183.411 36.2642 183.235C36.3586 182.902 36.4105 182.698 36.4567 182.52C36.5456 182.175 36.5994 181.958 36.6426 181.777C36.7239 181.426 36.7648 181.247 36.6836 181.307C36.9651 180.437 37.1526 179.596 37.2505 178.832C36.6743 179.501 36.2423 180.221 35.8581 180.976C35.7989 180.935 35.7311 181.143 35.6667 181.503C35.6321 181.689 35.5972 181.91 35.5327 182.246C35.4989 182.418 35.4608 182.613 35.3838 182.928C35.3437 183.089 35.2969 183.275 35.2038 183.577C35.0794 183.915 35.0686 184.192 34.4238 185.395C33.9586 186.116 33.708 186.802 31.9654 188.199C31.2515 188.754 29.7091 189.615 27.9873 189.817C26.2717 190.062 24.4863 189.646 23.3813 189.116C22.3826 188.658 21.6257 188.062 21.1793 187.652C20.7511 187.259 20.4324 186.893 20.17 186.558C19.744 186.007 19.4452 185.488 19.273 185.144ZM98.5886 5.41394C98.043 6.09825 99.8691 6.52503 101.247 6.41847C101.925 6.36629 102.519 6.23888 102.806 5.98511C103.706 5.20693 102.625 4.59998 101.129 4.55853C100.194 4.51295 99.1065 4.76923 98.5886 5.41394ZM65.6397 118.112C66.4518 114.126 59.8992 114.787 56.0781 119.757C55.7563 120.165 59.3091 118.412 58.7628 119.56C58.7105 119.665 57.0287 120.958 56.891 121.589C56.7466 122.222 57.7407 122.561 57.3479 123.395C56.6652 124.833 53.3752 126.17 53.1791 127.571C53.1565 127.748 55.4741 127.231 55.5976 127.186C57.6199 126.316 58.1061 123.832 58.3598 123.604C59.6046 122.485 60.2028 123.608 60.7092 123.566C61.6646 123.487 62.4019 122.204 62.506 122.176C65.1434 121.48 60.4676 124.772 60.2031 125.629C59.4382 127.886 61.5361 127.47 58.4374 131.209C58.1348 131.571 54.1333 135.256 60.0768 131.571C52.4182 142.84 65.9048 128.184 67.4958 126.667C68.1155 125.819 66.184 125.816 66.3466 125.021C66.7172 123.195 68.5731 121.581 67.3953 120.324C64.8987 117.681 63.6246 121.545 61.5078 122.48C61.2069 121.72 60.8043 121.065 60.6793 120.19C60.7723 121.395 65.5769 118.378 65.6438 118.117C65.6424 118.115 65.641 118.114 65.6397 118.112ZM45.8843 146.53C45.5183 146.902 45.2515 147.236 45.0531 147.546C43.9754 149.219 45.2027 150.056 43.125 151.748C43.8135 154.949 45.9297 150.378 46.2973 149.927C46.6989 149.412 47.125 149.074 47.5455 148.823C48.8888 147.968 50.1678 147.973 50.6317 145.784C49.0274 146.11 47.4764 146.279 45.8843 146.53ZM62.3833 127.023C61.5678 129.205 64.3337 126.867 64.5912 126.959C67.2413 127.729 58.818 134.315 62.3833 127.023ZM23.8994 72.0414C24.4878 71.1185 23.1899 71.2012 23.3651 70.1991C23.3879 70.0674 23.4494 69.9106 23.5381 69.7363C24.1252 68.5728 25.9116 66.7057 25.3585 66.4775C24.7213 66.1901 20.1471 70.7182 22.8481 65.1199C22.4095 65.1113 22.1945 64.9078 21.8415 64.8238C21.264 65.8262 20.6854 66.8408 20.1154 67.8645C19.8482 68.3443 19.5828 68.8234 19.3197 69.3024C20.1533 69.1336 21.0076 68.9712 21.8485 68.8123C22.438 68.6993 23.0243 68.5834 23.5872 68.4787C23.7486 69.1242 23.496 69.4203 23.2112 69.5576C22.9421 69.6878 22.6422 69.6799 22.6306 69.7012C22.6316 69.7018 22.6327 69.7024 22.6337 69.7029C21.87 71.2855 22.5831 74.126 23.8994 72.0414ZM12.0263 157.418C14.7592 156.944 11.049 155.275 10.4324 154.277C9.80999 153.296 10.4277 151.573 9.41854 152.418C9.05504 154.371 11.7146 157.488 12.0297 157.417C12.0286 157.417 12.0274 157.418 12.0263 157.418ZM38.4301 161.992C38.0076 164.651 38.818 164.54 36.8899 167.145C37.5534 167.279 38.2303 167.42 38.8841 167.552C39.819 165.277 37.9696 164.678 39.8478 162.317C40.1585 161.936 41.1612 163.471 41.5794 161.327C40.5688 161.56 39.476 161.763 38.4301 161.992ZM36.2589 174.674C37.0225 171.924 32.6695 167.917 33.2898 173.911C33.3947 174.808 35.6758 176.846 36.2589 174.674ZM14.0189 99.0964C15.3867 94.0273 13.1526 99.6185 12.0421 100.776C14.2212 88.7098 11.9258 102.132 8.99444 102.781C9.42709 104.443 10.6014 107.577 11.7261 104.61C12.1992 103.379 11.2974 103.666 11.3171 103.59C12.0402 101.284 13.283 101.869 14.0189 99.0964ZM48.169 141.432C48.1233 141.621 49.0898 141.758 48.999 142.378C48.9086 142.994 47.7185 144 48.1711 144.379C48.6413 144.733 50.2371 142.367 50.2027 141.519C50.1753 140.642 48.5945 139.748 48.169 141.432ZM37.3542 158.449C36.8926 161.081 41.7682 158.645 41.9789 158.181C43.9055 153.692 38.2759 158.996 37.3542 158.449ZM17.1941 112.112C16.653 105.744 12.7796 109.484 10.3254 113.215C10.6038 113.799 10.884 114.4 11.169 114.969C9.3459 112.274 7.75317 107.547 8.31908 117.42C9.53131 112.251 9.53852 116.717 9.66499 116.756C13.62 117.802 12.9127 110.15 17.1931 112.117C17.1935 112.115 17.1938 112.113 17.1941 112.112ZM52.8491 135.849C53.0565 135.614 53.3022 135.326 53.5842 134.997C55.6099 132.649 58.5435 128.919 55.4631 129.693C54.6891 131.339 53.9613 132.992 53.2431 134.66C53.0936 135.061 52.9655 135.454 52.8491 135.849ZM66.5353 27.1779C68.8123 26.7723 70.3294 25.7553 72.517 24.5027C69.8032 24.2933 71.0085 23.4239 71.5513 22.7188C72.3705 21.6548 69.7829 23.1025 69.7361 23.0383C69.0708 21.8121 70.6227 20.5444 66.8465 22.9404C67.5014 21.9214 68.1883 20.9227 68.9428 19.9387C65.8725 21.6311 64.7231 21.3629 62.174 21.8262C65.2848 22.6449 62.7688 22.964 61.4563 25.061C61.3215 25.2801 61.1999 25.5174 61.0995 25.7749C60.8519 26.4147 61.8385 26.7935 63.0648 26.9833C64.3867 27.192 65.9371 27.2789 66.5415 27.1733C66.5395 27.1748 66.5374 27.1764 66.5353 27.1779ZM18.9934 105.976C18.6434 105.248 18.1138 104.53 17.6961 103.798C17.7926 103.123 17.8979 102.45 17.9983 101.777C18.4455 101.795 18.9092 101.83 19.3431 101.831C19.6703 100.99 18.9959 101.188 19.0002 100.917C19.0025 100.918 19.0048 100.918 19.0071 100.919C19.0902 97.1083 19.5399 95.5835 21.4553 93.0908C21.4992 93.0365 21.5441 92.982 21.5899 92.9271C20.2825 92.6026 18.9752 92.2782 17.6679 91.9537C17.6639 92.0236 17.66 92.0935 17.6562 92.1635C17.6226 92.7859 17.588 93.4028 17.5526 94.0231C18.1707 94.5443 18.7896 95.0642 19.4083 95.5834C18.8357 96.2503 18.269 96.9073 17.6985 97.5735C17.8057 98.2414 17.8975 99.037 18.0199 99.621C13.636 101.793 17.765 95.477 16.2675 95.0538C15.2958 94.7678 13.6728 101.756 14.1373 102.923C14.2051 103.088 17.2751 102.202 15.2812 104.428C14.9736 104.769 8.996 103.644 13.2219 107.443C13.8249 107.974 17.7921 107.363 18.9934 105.976ZM27.8414 82.9153C22.593 84.7068 32.7474 73.7327 27.0708 77.8003C26.3201 75.3898 26.1963 75.6686 23.942 76.5753C23.7405 76.6544 23.8933 75.2982 23.7895 75.3644C22.2094 76.4897 21.6939 78.5829 20.263 77.9027C20.13 78.3677 20.003 78.8055 19.8754 79.274C22.076 78.1334 21.62 81.3993 22.323 82.9734C22.6334 83.6881 23.2849 82.6446 23.5627 83.2545C23.6594 83.4747 22.6641 84.8828 23.1274 85.1464C24.174 85.7216 26.0296 85.3732 27.5275 84.1847C27.5286 84.1852 27.5297 84.1857 27.5307 84.1862C27.6373 83.7636 27.7287 83.3431 27.8414 82.9153ZM23.0985 162.686C21.4961 164.03 21.6621 166.406 19.5153 163.298C19.3198 163.024 19.1051 162.702 18.8723 162.331C18.5716 162.727 18.2811 163.136 17.9861 163.539C18.0326 163.644 18.0792 163.749 18.1258 163.853C18.4244 164.513 18.7096 165.193 18.9885 165.901C25.8792 166.424 20.4699 173.389 23.8489 169.021C24.217 168.548 23.0624 166.661 24.9501 168.292C24.9504 168.289 24.9507 168.286 24.951 168.283C23.6798 165.564 22.8649 165.488 23.0985 162.686ZM16.252 144.829C10.4054 139.17 15.8587 154.474 16.4745 151.508C16.4782 151.27 13.9753 144.774 16.252 144.829ZM26.6718 166.052C25.518 169.021 27.8127 169.971 28.7314 169.957C29.6567 169.942 29.512 167.658 29.7428 167.446C30.4727 166.778 30.1223 168.621 31.0964 167.774C31.3896 167.472 34.1349 162.923 34.1458 162.693C34.1376 161.22 31.5147 162.261 31.4538 161.816C31.251 160.347 32.8906 159.216 32.0685 158.438C30.3041 156.787 31.1939 160.704 31.0334 161.205C30.5047 162.742 29.3713 162.131 28.6676 163.186C27.9738 164.231 28.0833 165.172 27.6194 166.162C27.4628 166.5 26.7349 165.904 26.6718 166.052ZM28.4077 177.242C28.0939 175.645 27.0337 176.144 25.9864 177.016C25.4699 177.586 25.0259 178.296 24.6821 178.95C24.5097 179.276 24.3595 179.593 24.2361 179.84C24.175 179.961 24.1189 180.068 24.0803 180.112C24.0618 180.132 24.0465 180.138 24.0496 180.093C24.0611 180.039 24.049 179.978 24.2309 179.623C24.2542 179.562 24.2965 179.478 24.3679 179.371C24.4327 179.275 24.5517 179.117 24.7616 178.93C25.0719 178.597 26.1584 178.055 27.0607 178.149C27.5052 178.173 27.8713 178.283 28.1393 178.398C28.3718 178.498 28.5273 178.595 28.6494 178.681C28.8948 178.859 28.9666 178.96 29.01 179.027C29.1676 179.301 29.0797 179.362 29.0188 179.428C28.9473 179.486 28.8535 179.52 28.7624 179.565C28.5773 179.65 28.3951 179.772 28.2303 179.93C28.0514 180.083 27.9731 180.303 27.6338 180.306C27.5277 180.301 27.4184 180.284 27.1696 180.273C26.9379 180.265 26.6247 180.346 26.45 180.489C26.1332 180.778 26.3004 180.894 26.415 180.86C26.429 181.014 26.5754 180.858 26.6693 180.764C26.7723 180.654 26.8736 180.521 26.9712 180.384C27.1667 180.108 27.3494 179.812 27.5177 179.524C27.8534 178.944 28.1356 178.395 28.3054 177.946C28.4055 177.678 28.4431 177.438 28.4077 177.242ZM18.9067 89.7264C19.396 92.7651 22.2559 86.9182 22.5449 85.0698C21.8808 85.1312 18.7105 88.6081 18.9067 89.7264ZM16.8958 113.785C16.9257 111.181 13.3493 114.033 13.1022 116.243C14.8946 117.776 14.6537 116.532 14.9451 115.15C15.2427 113.773 16.8969 115.801 16.8958 113.785ZM42.5597 136.92C42.1506 137.556 39.7964 146.436 42.6395 142.016C42.8193 141.688 45.3961 135.721 45.5615 135.147C45.6104 133.919 43.3366 135.536 42.5597 136.92ZM18.7134 125.7C16.9899 124.509 17.0684 123.175 15.0244 124.334C15.0244 124.335 15.0243 124.337 15.0243 124.339C14.5202 120.927 18.7083 121.11 18.6659 120.421C18.6081 117.947 15.4525 119.978 14.6731 118.281C15.1839 122.12 13.3195 120.859 13.0558 123.771C12.9891 124.439 14.1936 127.013 14.9625 127.316C15.7114 127.626 17.8536 126.307 18.7134 125.7ZM50.9818 125.782C48.2171 127.529 48.1966 131.505 51.5643 128.777C53.2137 127.469 52.6682 124.738 50.9818 125.782ZM133.67 22.8098C133.382 21.9916 133.08 21.1735 132.761 20.3557C133.903 20.4497 135.059 20.5459 136.206 20.6421C135.278 20.6519 134.353 20.6599 133.412 20.6657C135.43 21.4154 136.062 22.9325 133.676 22.8111C133.674 22.8107 133.672 22.8102 133.67 22.8098ZM200.229 54.1668C200.463 55.2768 203.244 54.8496 203.19 54.5771C202.717 52.456 199.874 52.6003 200.229 54.1668ZM26.4174 88.0791C27.878 85.2408 23.7778 85.8951 22.8289 87.7945C23.8877 86.8647 25.6263 89.7117 26.4174 88.0791ZM178.792 40.0908C178.653 39.68 178.508 39.2677 178.331 38.8398C179.126 39.71 179.162 40.0498 178.792 40.0908ZM39.0744 136.934C38.5376 137.404 36.6625 140.898 36.7459 141.46C36.9114 142.731 39.9556 140.917 40.2175 138.931C40.2398 138.727 39.5663 136.537 39.0705 136.942C39.0718 136.94 39.0731 136.937 39.0744 136.934ZM137.915 25.255C137.918 25.2209 137.929 25.1906 137.947 25.1647C137.935 25.1941 137.928 25.2258 137.915 25.255ZM221.714 120.906C221.77 120.894 221.825 120.89 221.877 120.897C221.825 120.899 221.77 120.907 221.714 120.906ZM24.0594 161.941C20.3931 162.045 20.8773 165.936 23.3676 163.982C23.4981 163.874 23.9222 162.261 24.0594 161.941Z" fill="black"/>
</svg>
