<svg width="379" height="358" viewBox="0 0 379 358" fill="none" xmlns="http://www.w3.org/2000/svg">
<path d="M47.8374 119.654C40.6445 132.429 33.4143 145.937 31.3393 157.683C28.4823 174.391 26.9757 191.923 28.3349 207.813C28.9053 214.511 28.7884 220.282 28.7534 225.848C28.7289 228.602 28.6963 231.303 28.7459 233.619C28.7669 234.738 28.8349 235.879 28.8776 236.229C28.8837 236.299 28.8886 236.31 28.8476 236.127C28.7914 235.927 28.7532 235.578 28.2954 234.478C28.1574 234.158 27.9789 233.78 27.7272 233.332C27.6 233.107 27.4606 232.874 27.2836 232.604C27.0719 232.281 26.8216 231.931 26.5184 231.555C25.8631 230.773 25.2533 230.066 23.7887 229.008C22.3941 228.017 20.4729 227.119 18.3935 226.74C16.3312 226.341 14.1575 226.505 12.6092 226.899C11.246 227.234 10.1658 227.716 9.32821 228.176C7.75584 229.076 7.26094 229.592 6.70703 230.1C5.31824 231.501 5.2548 231.789 5.02416 232.083C4.85475 232.335 4.80891 232.419 4.7847 232.46C4.74701 232.527 4.822 232.404 4.91327 232.243C5.10505 231.908 5.39425 231.39 5.7247 230.826C6.39783 229.685 7.23067 228.324 8.49565 226.734C9.55301 225.462 10.9163 223.398 12.5439 221.007C16.121 215.813 16.7824 216.705 17.9067 215.344C21.0799 211.619 21.9917 208.661 24.2617 206.014C31.295 197.884 38.1711 190.688 45.1835 183.583C48.7906 180.048 52.0852 175.829 57.6338 170.837C62.9208 166.246 66.5533 164.92 68.3705 164.465C71.592 163.923 70.331 166.325 73.985 164.935C84.7896 161.011 74.3409 161.909 78.0049 159.074C90.1615 153.319 103.058 149.211 115.725 146.094C112.752 147.316 109.795 148.578 106.82 149.889C112.311 148.209 120.217 146.622 111.443 150.254C113.51 149.927 115.495 149.697 117.618 149.392C117.802 147.809 127.405 145.188 128.097 144.179C128.782 143.128 123.386 144.669 123.394 144.6C123.443 144.11 127.78 143.005 132.824 142.03C139.235 140.785 146.72 139.661 147.637 139.531C151.891 138.931 148.604 141.465 152.138 140.586C158.23 139.082 153.395 136.4 162.698 139.362C165.679 137.136 166.137 137.87 170.341 137.109C170.895 137.008 170.284 136.208 170.521 136.135C176.721 134.168 172.191 136.824 172.243 136.907C173.132 138.306 179.785 136.237 181.252 136.093C194.661 134.758 205.448 133.678 217.751 132.02C222.283 131.422 226.982 130.694 232.226 130.028C234.12 129.818 237.62 129.119 241.761 129.136C245.959 129.073 250.374 130.694 252.717 131.893C253.33 132.194 253.851 132.464 254.259 132.693C257.758 134.667 255.331 134.739 256.979 136.137C261.153 135.196 264.241 136.349 270.088 141.44C273.495 141.044 272.446 142.238 277.357 144.544C281.451 146.588 289.428 148.124 292.807 154.272C287.719 149.399 287.868 151.17 282.042 148.09C280.216 146.907 260.639 136.622 261.166 139.264C261.462 140.563 268.358 143.042 268.521 143.366C269.431 145.122 265.222 144.437 262.257 142.39C263.149 142.59 264.225 142.884 265.171 143.12C258.626 138.193 261.154 145.523 257.78 138.573C257.356 137.72 257.875 137.303 257.027 136.203C256.686 136.319 257.778 137.555 256.549 137.079C255.288 136.587 253.496 134.398 252.722 135.146C251.572 136.214 256.846 138.121 257.179 138.389C257.187 138.383 257.195 138.377 257.203 138.371C260.183 140.704 253.204 137.374 252.805 137.351C250.936 137.198 251.069 137.88 249.859 137.91C249.437 137.93 248.86 137.873 248.003 137.727C246.136 137.264 242.404 136.253 240.646 136.518C239.022 136.676 241.54 137.347 240.462 137.503C239.417 137.655 237.966 137.224 236.582 137.549C235.996 137.69 236.119 138.456 235.832 138.517C232.753 139.221 234.586 137.343 231.696 137.879C229.815 138.225 223.612 140.861 228.132 140.513C226.039 141.037 223.953 141.534 221.846 142.046C223.253 142.021 224.648 141.924 226.019 141.952C223.166 142.205 221.544 143.089 219.935 143.793C219.279 144.088 218.602 144.357 217.847 144.528C215.342 145.098 212.8 143.965 210.166 145.261C205.069 147.761 216.489 145.066 220.071 144.527C220.465 144.466 220.763 144.43 220.943 144.425C221.318 144.416 220.847 144.867 220.219 145.327C219.663 145.756 218.967 146.194 218.763 146.249C216.946 146.747 214.561 146.294 213.142 146.606C208.019 147.738 205.111 149.502 200.253 150.701C183.733 154.782 163.169 159.695 147.577 163.404C143.459 164.382 140.368 164.425 138.004 164.591C137.026 164.66 136.183 164.749 135.449 164.934C129.511 166.453 129.093 167.754 124.003 169.197C116.456 171.323 105.797 173.822 99.813 176.079C95.6475 177.598 92.4958 180.303 91.4865 180.814C87.9925 182.576 84.3635 184.546 80.5636 186.695C77.8307 188.265 75.938 189.825 73.3943 192.528C70.8842 195.207 67.8133 198.87 64.6493 202.17C61.5893 205.384 58.7629 208.413 56.2958 211.123C51.9479 215.906 49.0375 217.406 48.2006 218.428C44.6495 222.851 46.4401 222.381 43.5339 225.806C41.9939 227.655 40.9099 227.403 40.6848 227.627C38.685 229.696 39.4591 230.921 38.2306 232.72C35.94 236.008 34.1022 239.303 30.3304 244.046C30.362 243.969 30.136 244.237 29.819 244.745C29.6537 245.006 29.4666 245.319 29.182 245.804C29.0351 246.052 28.8709 246.336 28.5919 246.788C28.4446 247.025 28.2769 247.295 27.9855 247.718C27.6351 248.182 27.4336 248.639 25.9731 250.102C24.8741 251.042 24.0646 252.092 20.5498 253.462C19.1515 253.998 16.1031 254.59 13.3548 254.029C10.5645 253.549 8.0308 252.034 6.62122 250.748C5.3041 249.587 4.42144 248.359 3.90081 247.516C3.41585 246.73 3.08166 246.038 2.81805 245.419C2.36801 244.351 2.12721 243.487 1.97369 242.881C1.38777 240.39 1.36862 239.159 1.27224 237.865C1.14121 235.407 1.17862 233.433 1.21115 231.47C1.29112 227.6 1.43684 224.001 1.45682 220.473C1.4629 219.527 2.05657 219.608 2.02114 219C1.84162 216.413 0.933005 217.607 0.792357 214.997C0.694778 213.383 0.594034 211.808 0.463272 210.364C0.037198 205.664 -0.0494809 200.943 0.0228901 196.178C0.034459 195.506 0.794282 195.201 0.809671 193.671C0.829138 192.137 0.123695 190.961 0.247511 188.557C0.581775 182.283 1.91968 176.244 2.706 169.761C2.8355 168.69 2.08131 167.247 2.30041 165.633C2.79599 161.936 3.99525 157.032 4.97252 153.008C5.37342 151.282 5.78886 149.72 6.11035 148.439C10.2612 132.786 16.4144 120.939 22.7955 109.281C24.3226 106.558 26.4225 104.613 27.2397 103.234C29.0828 100.128 27.0217 102.084 28.8486 98.9266C29.8608 97.1815 30.8656 95.4602 31.8774 93.7302C38.8506 81.6993 48.3195 72.1807 56.9374 63.702C67.2989 53.5944 77.8696 44.2953 88.93 35.072C90.3902 33.8623 91.874 32.6824 93.3794 31.5331C103.541 23.6209 116.868 15.5474 127.692 10.9372C131.833 9.15563 133.222 9.60082 135.858 8.6275C136.116 8.53098 136.385 8.4247 136.668 8.30668C143.013 5.7912 143.796 4.00524 150.929 2.11819C156.672 0.693237 163.467 1.32921 169.311 1.1082C175.165 0.923548 177.941 -0.361564 184.586 0.0991405C190.058 0.496899 197.301 2.35013 202.824 3.41533C204.999 3.82616 207.148 4.26057 209.271 4.70753C232.594 10.7324 248.284 21.466 265.529 30.9267C280.821 39.8606 293.94 50.1162 306.831 60.5609C315.829 67.8897 324.624 75.8222 332.808 84.4886C334.543 86.3235 336.286 88.203 338.02 90.1213C349.315 102.526 359.545 117.599 365.689 133.273C366.343 134.982 363.998 133.014 366.649 138.19C367.825 140.547 370.007 143.461 372.138 148.475C372.548 149.454 372.946 150.503 373.323 151.643C377.307 163.42 378.295 176.274 378.226 187.673C377.833 206.508 372.456 221.705 367.618 237.127C363.222 250.527 356.234 261.777 349.578 272.274C348.266 274.324 346.941 276.341 345.61 278.334C338.108 289.51 330.467 300.39 322.256 311.18C313.412 322.873 302.054 334.481 289.433 342.708C266.931 356.915 243.585 359.318 221.29 356.943C214.453 355.885 207.078 354.755 199.896 352.741L198.92 352.599C195.56 351.281 192.379 349.822 189.505 348.469C188.574 348.056 187.648 347.636 186.727 347.209C184.286 346.076 186.267 343.03 187.97 342.37C188.765 342.934 189.512 343.538 190.281 344.155C190.752 344.546 191.231 344.948 191.738 345.352C194.366 341.638 193.854 342.614 200.544 344.357L200.693 344.379C200.754 344.388 200.815 344.397 200.876 344.406C205.226 345.023 201.893 342.94 204.243 342.622C207.275 342.271 221.436 340.746 218.612 343.411C219.509 342.97 220.338 342.548 221.216 342.12C221.495 342.123 221.77 342.125 222.05 342.128C231.756 342.097 241.324 340.63 250.454 338.218C252.084 337.775 251.982 336.91 253.633 336.426C258.026 335.093 261.678 334.707 266.072 333.082C268.44 332.171 268.414 331.131 271.408 329.899C274.337 328.607 275.004 329.862 278.045 326.4C277.055 326.392 277.41 325.91 278.434 325.159C281.09 323.296 287.476 319.573 289.936 317.412C290.491 316.986 293.702 312.278 295.915 310.362C298.17 308.471 302.062 305.914 304.738 302.045C305.69 300.672 305.885 299.328 306.563 297.946C306.778 297.505 307.059 297.041 307.415 296.589C308.455 295.269 310.562 294.374 311.948 292.728C313.336 291.092 315.532 286.902 316.037 286.221C317.875 283.759 316.388 286.892 317.703 285.254C323.299 278.254 329.629 270.133 334.289 262.41C334.916 261.372 335.508 260.357 336.077 259.342C336.669 258.284 335.037 259.236 335.097 259.085C338.504 251.545 337.157 255.867 338.982 254.377C340.959 252.969 347.56 239.044 345.905 238.366C347.859 238.682 347.709 235.058 347.909 234.261C348.367 232.607 348.925 232.121 349.445 231.569C349.934 231.003 350.376 230.406 350.62 228.739C350.805 227.467 349.028 229.521 349.45 228.221C350.488 225.01 353.062 222.575 354.385 218.279C354.703 217.237 354.022 216.698 354.512 214.852C355.047 212.999 357.686 205.435 355.263 208.662C357.564 204.248 357.066 203.126 357.854 197.753C358.033 196.409 359.543 194.765 359.303 191.879C359.212 190.908 357.98 190.886 357.993 189.5C357.994 189.013 358.02 188.524 358.06 188.051C358.269 185.043 359.12 182.04 358.906 178.306C358.471 170.402 356.237 162.611 353.719 155.119C353.596 154.748 353.472 154.375 353.349 154C352.604 151.776 353.995 151.87 352.722 148.661C352.538 148.186 349.927 144.8 349.004 142.627C348.504 141.299 345.812 134.354 345.089 133.027C343.964 130.812 342.69 131.042 342.21 129.758C340.777 126.07 343.927 127.781 339.361 125.091C339.665 123.06 338.001 120.832 338.853 119.16C336.437 118.866 336.655 116.139 334.259 113.99C331.853 111.834 327.531 112.135 329.96 109.135C328.782 108.342 324.689 104.738 323.452 103.667C323.352 103.577 323.271 103.503 323.214 103.447C320.956 101.28 322.864 101.776 321.128 100.163C320.82 99.8808 320.614 100.684 318.801 98.7298C317.675 97.3879 308.398 88.5211 307.836 87.9869C302.024 81.3105 311.893 90.6262 313.753 91.4295C313.856 91.8073 313.957 92.1852 314.077 92.5775C316.632 95.5081 316.179 92.8183 315.156 91.3197C314.135 89.819 311.221 88.0979 310.485 86.7193C310.118 86.0289 311.763 84.8913 313.254 86.5786C311.891 84.5167 314.732 86.2688 314.413 85.2137C314.099 84.0136 306.057 76.7074 305.299 77.5243C306.816 78.8567 308.742 80.4741 310.241 81.862C310.96 84.9922 300.871 84.4405 296.84 77.9167C294.626 74.3657 298.339 75.883 295.951 74.1251C295.124 73.5199 293.562 72.5173 290.761 70.8065C292.247 72.0755 293.432 73.2413 294.77 74.4117C294.046 75.616 292.756 72.6228 291.315 72.0486C290.623 71.7753 293.445 75.2758 290.26 73.1657C288.925 69.5729 285.709 69.5792 281.357 66.284C282.779 66.921 284.203 67.5707 285.624 68.2235C279.159 61.4077 296.541 74.2168 282.706 62.5453C284.48 63.809 286.187 65.1431 287.976 66.4101C287.585 65.1809 290.246 64.5319 289.771 63.5888C288.521 61.1087 285.132 59.4153 282.742 57.5009C281.694 56.6637 282.706 56.6966 282.618 56.6265C281.18 55.4774 281.002 56.4018 279.672 55.491C278.011 54.3377 273.708 50.2656 272.86 49.8086C270.7 48.6068 273.112 52.3139 272.839 52.2816C271.1 52.0475 268.853 49.7038 268.394 50.6783C275.224 54.2679 292.197 68.3191 275.213 57.8586C278.61 62.4811 275.927 63.3728 269.526 59.0341C264.197 55.5029 268.125 57.0825 265.958 54.3367C265.694 53.952 258.763 48.8781 257.993 49.3279C259.179 48.0608 257.541 45.3185 260.068 44.7982C260.447 44.7158 263.444 46.7023 263.126 44.8456C262.975 43.9138 262.214 41.6437 262.933 41.0292C261.956 41.1665 260.92 41.3659 259.93 41.5398C259.77 41.4524 259.615 41.3673 259.465 41.2844C255.14 38.8958 254.78 37.9183 252.864 35.5058C252.739 35.9963 254.077 39.1327 250.8 36.5223C250.633 36.3833 250.84 35.6529 249.192 34.2881C245.846 31.5368 245.17 30.901 249.1 30.6485C240.752 27.3548 240.275 24.2875 231.696 20.6755C232.092 23.9931 235.276 24.7918 242.858 28.3779C242.859 29.1328 242.683 29.7823 242.684 30.5456C233.687 23.8951 238.408 26.6504 232.209 24.8977C230.715 24.4473 223.431 20.545 225.108 23.4261C225.515 24.0872 230.078 26.3022 229.236 26.6634C229.085 26.7121 223.425 24.3135 222.997 23.9476C217.585 19.2733 229.857 22.2269 211.474 16.2079C210.955 16.0721 210.538 16.7836 209.511 16.6058C207.945 16.3442 207.772 15.7145 206.827 15.375C206.611 15.2978 206.354 15.238 206.026 15.2061C204.31 15.0388 201.751 15.7598 199.471 14.1107C196.166 11.7659 202.336 11.8224 207.342 13.1306C208.839 13.5124 210.199 14.0316 211.218 14.594C211.881 14.1287 210.445 13.0989 207.592 12.0398C199.338 8.45624 177.468 5.65524 175.598 6.23101C165.505 7.05609 182.277 6.82154 182.991 7.92153C183.319 8.29054 182.709 12.3169 187.068 10.1631C188.389 9.52535 183.428 7.87374 186.521 7.80545C189.625 7.76191 188.252 8.81533 188.462 8.92531C189.174 9.30608 192.434 9.35209 192.818 9.5975C198.651 13.2877 197.432 16.9803 190.056 9.90038C186.238 10.6637 194.212 13.9867 189.61 14.188C184.091 14.4526 180.326 12.3213 179.621 12.1827C171.393 10.7778 180.799 13.7864 170.782 12.7788C165.126 12.4251 179.255 10.721 166.28 11.3049C155.433 12.4616 161.455 12.9211 160.927 15.11C160.801 15.6422 155.28 17.0129 162.908 15.7859C163.065 15.201 163.401 14.4171 163.854 13.8516C165.856 14.0633 169.154 16.746 170.123 16.8358C174.964 17.2546 174.802 15.8511 177.584 17.7029C175.633 15.7075 178.916 17.0122 180.203 16.7285C185.01 15.7341 178.982 14.3913 189.267 17.6609C188.03 16.5782 186.899 15.5447 185.654 14.5023C186.943 14.6296 188.233 14.7748 189.52 14.937C191.157 17.1305 197.848 18.0805 191.473 18.9589C198.615 20.7513 201.608 21.0759 203.539 19.9282C203.851 19.7441 204.716 19.8134 205.766 20.0055C205.937 20.0362 206.113 20.0715 206.294 20.1109C206.164 19.6401 206.156 18.2844 206.392 18.1731C208.577 17.204 210.669 20.4376 209.445 21.0423C210.285 21.3452 210.946 21.6221 211.175 21.723C212.634 22.3682 209.427 22.1887 210.545 22.8673C210.919 23.0563 215.134 24.426 215.094 24.8083C214.738 27.1468 208.686 22.5983 221.608 29.7414C222.807 28.0435 216.308 25.6201 218.779 24.3858C221.494 23.0426 223.794 27.5311 225.792 25.3795C225.88 25.9376 225.84 26.3478 225.858 26.9444C231.934 28.5948 230.907 30.7733 232.327 32.0962C235.074 34.6371 249.81 42.7653 237.609 33.6178C239.641 34.5026 241.659 35.5234 243.671 36.4557C242.03 40.3733 241.709 38.2113 250.564 44.0713C252.52 45.3718 252.243 47.3524 255.325 46.6084C254.992 47.0266 255.14 47.4847 255.564 47.949C256.793 49.3171 260.498 50.8095 260.792 51.2408C262.259 53.3914 257.982 52.0638 254.361 50.0041C251.742 48.5079 249.406 46.5396 249.496 44.8028C246.51 44.7886 247.501 43.0945 244.869 41.885C241.06 40.1455 240.385 40.1927 236.777 36.538C231.57 35.9265 252.88 46.6528 238.976 41.8892C233.787 40.4034 218.752 31.8725 203.784 28.6567C181.586 23.6912 158.036 24.5818 145.647 31.2803C141.212 33.3041 137.694 34.9994 135.32 36.186C122.384 42.6258 113.361 48.6782 105.664 55.2944C95.6699 63.938 86.3377 72.3178 75.7659 82.6791C74.2821 84.1475 72.7864 85.6353 71.2804 87.1608C68.4897 89.346 55.6591 105.668 56.534 100.976C56.4976 100.293 61.5057 92.3861 55.1608 97.6031C56.9848 96.9555 54.8321 101.12 54.7538 101.503C53.9928 103.952 53.818 105.402 53.7111 106.473C53.246 109.594 53.3673 109.962 47.8374 119.654ZM10.444 154.311C10.4659 154.203 10.4876 154.096 10.5092 153.99C16.4598 132.705 10.8167 148.15 8.67935 142.528C7.74402 145.383 6.9232 148.33 6.2828 151.412C6.66578 150.652 7.06082 149.901 7.46461 149.172C7.46542 149.169 7.46623 149.166 7.46703 149.162C8.32169 150.794 9.22278 152.401 10.1813 153.932C10.2688 154.059 10.3564 154.185 10.444 154.311ZM231.906 142.177C231.21 142.764 230.54 143.351 229.796 143.944C227.182 144.244 224.495 144.592 221.814 144.939C222.062 144.57 222.327 144.194 222.588 143.823C225.738 143.258 228.865 142.701 231.906 142.177ZM214.295 15.0521C217.656 17.6538 218.193 15.3437 222.675 18.4327C222.767 16.5975 222.779 14.7729 222.774 12.9256C218.761 11.539 217.665 11.7701 213.237 9.89755C213.611 10.5906 213.983 11.2936 214.309 11.987C215.093 12.1239 215.903 12.265 216.652 12.4261C217.223 14.2324 210.255 12.1186 214.28 15.0508C214.285 15.0512 214.29 15.0517 214.295 15.0521ZM250.828 32.3902C252.535 33.6157 259.252 38.4931 260.57 38.4469C265.097 38.283 244.157 27.8935 260.104 34.6754C260.206 34.3436 260.441 34.0975 260.61 33.8086C257.962 32.1265 255.303 30.4665 252.593 28.8052C252.079 30.0467 251.326 31.1318 250.828 32.3902ZM44.8268 84.8349C46.9635 82.1038 57.0075 69.9405 52.3717 72.6042C50.9829 73.3659 47.7433 80.0845 45.9461 82.1559C44.7629 83.4919 45.1025 81.1635 43.2123 84.2143C43.7237 84.4181 44.2415 84.7061 44.83 84.8252C44.829 84.8284 44.8279 84.8316 44.8268 84.8349ZM46.6734 93.9603C48.3931 91.141 50.2621 88.339 52.2643 85.6575C49.6102 86.6083 47.3252 90.9836 45.6327 90.0844C46.0756 89.2456 46.5259 88.4203 46.9922 87.5932C47.7665 87.2878 48.5343 87.0029 49.3004 86.7294C50.3646 83.8377 48.8057 84.7944 52.6403 80.9357C48.3628 81.462 46.411 80.8656 43.0164 90.3481C42.8529 87.9424 37.511 86.3316 37.534 93.0468C37.5512 94.2645 40.2556 90.936 40.387 90.9767C41.8556 91.2084 41.2733 93.6017 42.7149 93.7392C43.3548 93.8011 44.7597 91.7613 45.628 91.9368C46.0331 92.031 45.6158 94.5533 46.6734 93.9603ZM37.2359 95.9833C37.1797 95.42 36.5315 95.4657 35.692 95.9565C34.5572 96.5626 33.0904 97.9468 32.393 99.6023C30.6738 103.681 35.1209 99.2415 36.8432 96.6284C36.994 96.3971 37.1267 96.1803 37.2359 95.9833ZM231.922 142.173C231.917 142.174 231.911 142.176 231.906 142.177C231.908 142.175 231.911 142.173 231.913 142.171C231.916 142.171 231.919 142.172 231.922 142.173ZM241.872 26.2681C244.384 26.8548 247.517 28.7378 247.826 27.6482C248.768 28.4282 249.729 29.2192 250.655 29.997C250.809 29.7037 250.954 29.4042 251.107 29.1138C248.074 27.1446 245.012 25.1854 241.905 23.2507C241.882 24.2476 241.826 25.2313 241.872 26.2681ZM275.388 47.3688C279.073 50.0929 276.795 46.6589 278.035 46.6459C279.286 46.6341 282.271 49.5119 282.488 48.3908C280.316 46.7633 278.023 45.0872 275.76 43.4874C275.722 44.8324 275.482 46.066 275.395 47.374C275.393 47.3723 275.39 47.3706 275.388 47.3688ZM7.15476 241.326C6.7153 238.495 7.20584 238.278 7.24486 237.175C7.33386 236.195 7.19365 234.815 6.49329 231.678C6.49334 231.683 6.49338 231.688 6.49343 231.692C6.25261 233.368 6.02127 235.194 5.97445 237.378C5.97386 238.536 5.94082 239.645 6.32024 241.579C6.41078 242.021 6.58666 242.711 6.86174 243.429C7.25145 244.31 7.52087 245.31 9.26229 247.107C10.0303 247.892 11.7368 249.103 13.6434 249.537C15.5186 250.046 17.8078 249.721 18.8567 249.342C21.426 248.416 22.081 247.606 22.9004 246.912C23.9143 245.902 24.0735 245.565 24.3335 245.222C24.5539 244.906 24.6881 244.694 24.8095 244.501C25.0405 244.132 25.1919 243.874 25.3303 243.64C25.6006 243.178 25.7995 242.83 25.9814 242.515C26.3364 241.895 26.6153 241.436 26.7368 241.197C27.4983 240.136 28.1446 239.07 28.6703 238.056C27.6973 238.865 26.8551 239.738 26.0398 240.644C25.7848 240.854 25.4809 241.317 25.1414 241.944C24.9682 242.262 24.7856 242.62 24.5393 243.084C24.4133 243.319 24.2761 243.575 24.0642 243.937C23.9558 244.121 23.833 244.326 23.6309 244.63C23.3885 244.958 23.2712 245.26 22.2759 246.264C21.5562 246.886 21.0672 247.516 18.9149 248.393C18.0383 248.734 16.2658 249.13 14.5177 248.826C12.7629 248.565 11.1299 247.638 10.1881 246.785C9.33187 246.037 8.74501 245.211 8.41146 244.653C8.09175 244.12 7.87005 243.639 7.69477 243.196C7.412 242.473 7.24188 241.787 7.15476 241.326ZM204.15 8.85722C203.1 9.28613 205.723 10.4291 207.853 10.8991C208.837 11.1151 209.729 11.2379 210.215 11.114C211.733 10.7469 210.356 9.70157 208.269 9.08247C206.867 8.65326 205.143 8.4543 204.15 8.85722ZM103.784 161.233C107.341 157.091 97.7437 156.851 89.5206 161.891C88.8234 162.301 94.7662 160.782 93.3116 161.979C93.1732 162.086 90.0674 163.318 89.4854 164.006C88.8915 164.692 90.0354 165.173 88.9713 166.06C87.1178 167.588 81.8215 168.782 80.6613 170.369C80.5131 170.569 83.9644 170.192 84.1647 170.153C87.4697 169.347 89.7356 166.622 90.2229 166.398C92.64 165.286 92.7586 166.595 93.4859 166.601C94.8606 166.613 96.7012 165.285 96.8635 165.266C100.99 164.795 92.3767 167.889 91.4671 168.841C88.9547 171.301 92.117 170.991 85.3899 174.99C84.7406 175.375 76.819 179.304 87.398 175.54C69.3465 187.982 97.699 171.987 101.043 170.729C102.472 169.865 99.7235 169.656 100.465 168.803C102.157 166.84 105.805 165.324 104.908 163.829C102.999 160.674 98.8262 164.681 95.2815 165.49C95.3418 164.622 95.1936 163.859 95.5652 162.887C94.9308 164.205 103.524 161.494 103.787 161.24C103.786 161.238 103.785 161.235 103.784 161.233ZM58.9784 193.975C58.3298 194.434 57.8156 194.851 57.3936 195.242C55.0687 197.395 55.9247 198.631 52.4514 200.731C51.1497 205.124 56.5453 199.127 57.265 198.555C58.0621 197.895 58.7721 197.477 59.4189 197.176C61.4734 196.187 62.8886 196.354 64.7858 193.463C62.7799 193.738 60.9367 193.8 58.9784 193.975ZM93.5948 170.609C91.032 172.969 96.4257 170.62 96.7337 170.755C99.9616 171.827 83.8196 178.484 93.5948 170.609ZM61.9363 72.9108C63.2171 71.7398 61.6618 71.7366 62.5159 70.4268C62.628 70.2546 62.8013 70.0527 63.0174 69.83C64.4448 68.3493 67.7423 66.0548 67.2464 65.7095C66.6776 65.2833 58.4555 70.8 65.2003 63.7184C64.6952 63.6687 64.5764 63.3842 64.22 63.2435C62.9023 64.4993 61.5805 65.7728 60.2698 67.0607C59.6498 67.6699 59.0335 68.2779 58.4214 68.8857C59.4915 68.7382 60.5843 68.5994 61.6611 68.4629C62.4141 68.3681 63.1672 68.2681 63.8874 68.1802C63.6569 69.0424 63.1727 69.4103 62.755 69.5655C62.3586 69.7143 62.0165 69.6779 61.9892 69.705C61.99 69.7058 61.9909 69.7066 61.9917 69.7075C60.0813 71.7291 59.0641 75.5578 61.9363 72.9108ZM7.53927 196.837C10.2925 197.353 7.21061 193.182 6.92355 191.427C6.61949 189.688 7.7379 187.359 6.51685 188.203C5.56387 190.975 7.21465 196.794 7.54281 196.837C7.54163 196.837 7.54045 196.837 7.53927 196.837ZM40.5132 214.272C38.3349 217.913 39.2923 217.843 35.502 221.303C36.1449 221.563 36.7994 221.832 37.4347 222.086C39.9394 218.968 38.2673 217.95 41.8874 214.861C42.4824 214.364 42.6068 216.584 44.4708 213.658C43.1835 213.885 41.828 214.059 40.5132 214.272ZM30.0659 232.049C32.6022 228.124 30.3939 221.864 27.3874 230.546C26.9575 231.849 28.1304 235.107 30.0659 232.049ZM34.7347 109.393C39.0363 102.24 33.5414 110.01 31.7542 111.505C40.8696 94.3146 30.8378 113.469 27.5114 113.895C27.0235 116.38 26.4718 121.167 29.2712 117.037C30.4434 115.324 29.3638 115.585 29.426 115.479C31.4611 112.246 32.4014 113.309 34.7347 109.393ZM64.8209 187.3C64.6443 187.555 65.6551 187.825 65.1418 188.67C64.6295 189.511 62.6448 190.763 62.9139 191.319C63.2099 191.854 66.5321 188.778 67.0985 187.58C67.6787 186.356 66.4237 185.03 64.8209 187.3ZM41.5861 209.298C39.3751 212.86 46.4157 209.99 46.9663 209.371C52.0621 203.42 42.2503 210.139 41.5861 209.298ZM30.6303 129.082C33.6481 119.516 27.5764 124.402 23.1401 129.381C23.1068 130.297 23.0676 131.24 23.0509 132.141C22.6838 127.779 23.5131 120.554 18.9626 135.147C22.8169 127.805 20.5245 134.373 20.629 134.465C23.9587 136.88 27.3779 125.351 30.6264 129.09C30.6277 129.088 30.629 129.085 30.6303 129.082ZM74.6827 180C75.1443 179.712 75.6993 179.366 76.3338 178.983C80.5802 176.394 87.0369 172.38 82.3505 173.001C80.2282 174.82 78.16 176.678 76.103 178.563C75.6055 179.036 75.1389 179.511 74.6827 180ZM145.694 20.9157C149.239 20.7247 152.16 19.827 156.214 18.9188C152.234 18.2578 154.582 17.5562 155.789 16.9354C157.616 15.9962 152.935 17.0204 152.908 16.9594C152.654 15.6 155.621 14.4972 148.764 16.4227C150.311 15.4442 151.878 14.5193 153.521 13.6472C148.131 14.8613 146.66 14.455 142.879 14.602C146.686 15.8975 143.015 15.8681 139.925 18.0387C139.601 18.2674 139.284 18.5178 138.983 18.7931C138.238 19.4775 139.351 20.0014 140.919 20.3395C142.612 20.7041 144.764 20.9595 145.706 20.9113C145.702 20.9128 145.698 20.9142 145.694 20.9157ZM35.9083 120.308C35.9654 119.174 35.833 118.028 35.8227 116.883C36.3055 115.91 36.7976 114.941 37.2851 113.973C37.7334 114.074 38.1884 114.204 38.6329 114.278C39.4503 113.101 38.6452 113.278 38.8047 112.883C38.8067 112.884 38.8088 112.885 38.8108 112.886C41.0803 107.33 42.4218 105.188 45.8265 101.871C45.9044 101.797 45.9835 101.723 46.0637 101.648C44.903 100.964 43.7423 100.281 42.5815 99.5975C42.5373 99.6981 42.4932 99.799 42.4491 99.9001C42.0567 100.8 41.6664 101.693 41.2736 102.59C41.6101 103.45 41.9482 104.308 42.2864 105.166C41.3137 106.044 40.3534 106.908 39.3848 107.785C39.1118 108.777 38.75 109.952 38.5411 110.825C32.7985 113.262 40.6522 104.74 39.3592 103.88C38.5189 103.304 32.8579 113.205 32.6809 114.994C32.6569 115.248 36.2967 114.475 32.9977 117.392C32.4897 117.844 27.0315 115.133 29.209 121.448C29.524 122.338 33.8898 122.15 35.9083 120.308ZM59.3356 87.8926C52.1626 89.8453 71.054 75.8407 61.836 80.8601C62.5553 77.5613 62.2173 77.9342 59.0409 78.9452C58.7585 79.0322 59.8137 77.2351 59.6516 77.3148C57.1049 78.671 55.1811 81.4313 53.9983 80.3791C53.5525 80.9891 53.1319 81.5646 52.6924 82.1826C55.8948 80.8652 53.3016 85.2149 53.0773 87.4682C52.964 88.4866 54.3629 87.1092 54.2806 87.9789C54.2435 88.2914 52.231 90.1522 52.5758 90.5718C53.3616 91.4907 55.6382 91.1742 58.1318 89.6331C58.1327 89.6338 58.1336 89.6346 58.1345 89.6354C58.5374 89.0532 58.9219 88.4756 59.3356 87.8926ZM16.8985 210.049C15.0048 211.251 14.5847 214.975 13.2543 209.193C13.1273 208.684 12.9943 208.093 12.8575 207.42C12.4682 207.867 12.0863 208.336 11.702 208.792C11.7224 208.972 11.7431 209.151 11.7642 209.329C11.9035 210.497 12.0122 211.683 12.1002 212.905C18.6413 216.97 11.4465 225.032 15.9316 219.934C16.4194 219.381 15.8358 215.995 17.1935 219.329C17.1946 219.324 17.1958 219.32 17.1969 219.315C16.7315 214.627 15.97 214.103 16.8985 210.049ZM15.4321 179.493C11.7376 168.449 11.9472 194.092 13.5218 189.852C13.5713 189.482 13.2702 178.482 15.4321 179.493ZM25.0821 218.569C22.0754 222.517 23.9602 224.186 24.9409 224.288C25.932 224.388 27.1629 221.16 27.5415 220.897C28.737 220.053 27.2307 222.591 28.7998 221.524C29.2825 221.132 35.1345 215.113 35.3064 214.802C36.2271 212.771 32.6728 213.922 32.8875 213.301C33.5796 211.263 36.1113 209.894 35.6892 208.746C34.7649 206.311 33.2955 211.74 32.806 212.417C31.2643 214.467 30.401 213.501 28.9836 214.867C27.5866 216.22 27.1334 217.53 26.0346 218.843C25.6624 219.291 25.239 218.372 25.0821 218.569ZM20.2139 234.615C20.8553 232.322 19.447 232.87 17.7052 234.036C16.8471 234.687 16.0141 235.561 15.3122 236.414C14.9606 236.84 14.637 237.264 14.3619 237.62C14.2257 237.796 14.0984 237.958 14.0056 238.06C13.9606 238.11 13.9222 238.146 13.9152 238.136C13.919 238.119 13.9011 238.089 14.1497 237.827C14.1566 237.807 14.1908 237.763 14.2611 237.703C14.3244 237.648 14.4493 237.552 14.6715 237.447C15.0056 237.244 16.1288 237.04 16.9166 237.367C17.3095 237.508 17.6058 237.704 17.8093 237.873C17.9857 238.02 18.092 238.142 18.1707 238.243C18.3269 238.45 18.3495 238.536 18.3604 238.593C18.3854 238.813 18.2609 238.775 18.1652 238.765C18.0612 238.741 17.9526 238.712 17.8473 238.709C17.6355 238.697 17.4312 238.787 17.248 238.962C17.0582 239.137 16.9509 239.452 16.7197 239.493C16.6466 239.493 16.571 239.472 16.3782 239.417C16.198 239.367 15.9194 239.366 15.762 239.447C15.4724 239.62 15.6837 239.718 15.891 239.635C15.9203 239.726 16.1505 239.542 16.3151 239.4C16.4912 239.248 16.6716 239.068 16.8498 238.883C17.2067 238.511 17.5579 238.113 17.8955 237.723C18.5699 236.939 19.1953 236.193 19.6631 235.588C19.9407 235.228 20.1305 234.895 20.2139 234.615ZM45.176 96.5703C43.8508 101.045 50.4175 92.9378 51.9818 90.404C51.1795 90.424 45.6023 94.9369 45.176 96.5703ZM29.4071 131.528C30.8714 127.643 25.6963 131.207 24.2984 134.442C25.2675 137.12 25.6791 135.199 26.7141 133.187C27.7562 131.185 28.3049 134.557 29.4071 131.528ZM61.352 180.71C60.5261 181.428 52.1325 193.323 58.1981 187.575C58.6092 187.124 65.3462 179.334 65.9422 178.7C66.7759 177.155 63.0798 178.966 61.352 180.71ZM24.9791 150.41C23.894 147.983 24.6153 145.957 22.0877 147.208C22.0868 147.21 22.086 147.213 22.0851 147.216C23.2339 141.818 27.2758 143.117 27.5888 142.022C28.8382 138.175 24.6623 140.603 24.7819 137.844C23.2998 143.793 22.1171 141.443 20.458 145.809C20.069 146.801 20.0584 151.118 20.6655 151.854C21.2395 152.588 23.8606 151.155 24.9791 150.41ZM78.8795 168.123C74.1036 169.85 71.484 174.466 77.7257 171.606C80.7771 170.244 81.7925 167.098 78.8795 168.123ZM252.1 44.4009C251.814 43.3933 251.507 42.3777 251.177 41.3538C252.826 42.106 254.494 42.8697 256.149 43.6289C254.796 43.1049 253.448 42.5813 252.075 42.0465C254.892 43.9774 255.567 45.9046 252.108 44.4054C252.105 44.4039 252.103 44.4024 252.1 44.4009ZM340.584 123.076C340.805 124.68 344.181 126.014 344.132 125.617C343.726 122.538 340.257 120.815 340.584 123.076ZM54.2943 95.0844C57.811 91.1245 52.7755 91.7067 50.555 94.2965C52.3074 93.0725 52.3514 97.3806 54.2943 95.0844ZM313.753 91.4295C313.599 90.8658 313.439 90.2983 313.236 89.6928C314.238 91.2101 314.257 91.6268 313.753 91.4295ZM57.4184 180.361C56.549 180.893 52.1771 185.49 51.8729 186.285C51.22 188.042 55.9064 185.802 57.4473 183.152C57.6069 182.871 58.2185 179.884 57.4089 180.371C57.4121 180.368 57.4152 180.364 57.4184 180.361ZM257.932 49.4028C257.941 49.369 257.962 49.3442 257.993 49.3279C257.971 49.3515 257.955 49.3802 257.932 49.4028ZM345.739 238.345C345.802 238.338 345.858 238.343 345.905 238.366C345.853 238.358 345.794 238.36 345.739 238.345ZM24.731 212.601C20.696 212.272 18.9575 217.615 22.7674 215.293C22.9697 215.163 24.3883 213.019 24.731 212.601Z" fill="black" fill-opacity="0.98"/>
</svg>
